<?xml version="1.0" encoding="utf-8" ?><svg height="100%" preserveaspectratio="xMinYMin" style="overflow: hidden; position: relative; left: -0.5px;" version="1.1" viewBox="0 0 610 560" width="99%" xmlns="http://www.w3.org/2000/svg"><desc>Created with Raphaël 2.1.0</desc><defs></defs><path d="M233,415L238,431L247,442L250,438L263,434L253,418L246,416L240,415L236,411Z" fill="#dfddc9" fill-opacity="0" id="ter_Tus" stroke="#ffffff" stroke-width="1" style="fill-opacity: 0;" transform="matrix(1,0,0,1,0,0)"></path><path d="M408,470L410,473L414,475L410,482L409,487L417,486L417,489L423,487L432,493L452,495L466,491L468,479L468,461L464,457L442,460L440,458L430,455L426,450L420,451L412,454L413,464Z" fill="#dfddc9" fill-opacity="0" id="ter_Con" stroke="#ffffff" stroke-width="1" style="fill-opacity: 0;" transform="matrix(1,0,0,1,0,0)"></path><path d="M271,464L276,474L290,487L294,502L289,511L290,514L295,515L308,500L311,491L304,484L293,481L279,458Z" fill="#dfddc9" fill-opacity="0" id="ter_Nap" stroke="#ffffff" stroke-width="1" style="fill-opacity: 0;" transform="matrix(1,0,0,1,0,0)"></path><path d="M322,480L297,456L300,453L290,453L278,443L272,424L260,417L261,401L270,398L276,399L275,403L278,410L282,401L286,402L289,418L306,436L331,454L331,477L335,480Z" fill="#d0d0f0" fill-opacity="0" id="ter_ADR" stroke="#ffffff" stroke-width="1" style="fill-opacity: 0;" transform="matrix(1,0,0,1,0,0)"></path><path d="M238,431L247,442L248,447L256,458L271,464L276,474L290,487L294,502L289,511L285,511L285,508L276,510L263,510L257,507L252,508L247,513L236,524L233,523L224,527L223,518L218,516L218,490L220,490L224,468L222,458L218,458L218,454L223,450L225,444L225,436L224,431Z" fill="#d0d0f0" fill-opacity="0" id="ter_TYS" stroke="#ffffff" stroke-width="1" style="fill-opacity: 0;" transform="matrix(1,0,0,1,0,0)"></path><path d="M276,399L275,403L278,410L282,401L286,402L289,418L306,436L331,454L330,445L337,446L330,437L327,429L331,424L330,416L332,410L323,408L321,398L311,394L308,383L299,385L294,380L289,385L276,386L279,389Z" fill="#dfddc9" fill-opacity="0" id="ter_Tri" stroke="#ffffff" stroke-width="1" style="fill-opacity: 0;" transform="matrix(1,0,0,1,0,0)"></path><path d="M191,299L194,303L206,306L205,311L208,315L210,326L205,331L192,323L184,315L169,311L173,301Z" fill="#dfddc9" fill-opacity="0" id="ter_Bel" stroke="#ffffff" stroke-width="1" style="fill-opacity: 0;" transform="matrix(1,0,0,1,0,0)"></path><path d="M362,33L357,39L343,44L324,54L320,64L310,75L309,84L303,86L292,111L277,132L269,134L264,142L258,141L236,154L198,154L171,181L171,197L158,193L152,194L154,188L161,185L162,181L148,177L148,0L362,0Z" fill="#d0d0f0" fill-opacity="0" id="ter_NWG" stroke="#ffffff" stroke-width="1" style="fill-opacity: 0;" transform="matrix(1,0,0,1,0,0)"></path><path d="M142,417L149,403L157,397L168,395L173,396L178,390L178,381L194,382L197,385L203,379L207,386L204,390L207,396L201,399L204,402L203,410L211,416L198,421L188,422L176,417L169,412L158,418L158,425L154,427Z" fill="#dfddc9" fill-opacity="0" id="ter_Mar" stroke="#ffffff" stroke-width="1" style="fill-opacity: 0;" transform="matrix(1,0,0,1,0,0)"></path><path d="M244,254L243,257L245,263L244,270L244,273L235,277L234,274L230,273L226,275L227,280L225,292L220,298L215,297L213,302L232,308L241,316L243,322L263,310L261,296L264,293L262,287L266,283L266,275L261,274L260,269L256,266L256,263L254,255Z" fill="#dfddc9" fill-opacity="0" id="ter_Kie" stroke="#ffffff" stroke-width="1" style="fill-opacity: 0;" transform="matrix(1,0,0,1,0,0)"></path><path d="M102,317L100,322L103,328L109,329L123,344L122,350L123,357L128,363L121,382L122,384L112,399L101,396L96,397L72,384L59,381L54,375L48,374L46,378L39,375L33,381L35,384L32,396L30,406L17,427L14,427L10,433L13,440L15,441L12,450L13,454L8,462L19,469L27,468L33,475L34,484L37,490L37,495L33,496L17,518L0,520L0,273L58,273Z" fill="#d0d0f0" fill-opacity="0" id="ter_MAO" stroke="#ffffff" stroke-width="1" style="fill-opacity: 0;" transform="matrix(1,0,0,1,0,0)"></path><path d="M339,487L346,498L350,498L347,500L352,508L367,507L371,511L355,510L350,514L357,521L359,533L360,528L367,536L368,531L376,537L371,520L378,521L377,513L386,516L385,509L370,494L371,491L378,494L368,483L371,477L379,484L382,483L381,477L386,478L380,472L392,472L388,460L376,464L369,464L361,467L356,471L350,471L350,477Z" fill="#dfddc9" fill-opacity="0" id="ter_Gre" stroke="#ffffff" stroke-width="1" style="fill-opacity: 0;" transform="matrix(1,0,0,1,0,0)"></path><path d="M70,261L64,250L67,242L71,245L81,234L74,228L80,225L78,218L82,217L89,220L94,220L95,218L94,216L97,216L101,212L110,212L119,217L120,227L130,227L130,223L138,217L138,214L130,208L129,197L139,189L140,182L148,177L148,0L0,0L0,273L58,273Z" fill="#d0d0f0" fill-opacity="0" id="ter_NAO" stroke="#ffffff" stroke-width="1" style="fill-opacity: 0;" transform="matrix(1,0,0,1,0,0)"></path><path d="M138,214L130,208L129,197L139,189L140,182L148,177L162,181L161,185L154,188L152,194L146,200L144,213Z" fill="#dfddc9" fill-opacity="0" id="ter_Cly" stroke="#ffffff" stroke-width="1" style="fill-opacity: 0;" transform="matrix(1,0,0,1,0,0)"></path><path d="M226,275L227,280L225,292L220,298L215,297L213,302L210,313L208,315L205,311L206,306L194,303L191,299L198,289L205,276L205,279L207,279L211,274Z" fill="#dfddc9" fill-opacity="0" id="ter_Hol" stroke="#ffffff" stroke-width="1" style="fill-opacity: 0;" transform="matrix(1,0,0,1,0,0)"></path><path d="M275,203L277,218L276,224L282,236L279,240L279,243L282,253L289,254L294,245L305,244L312,229L311,220L314,209L322,206L328,203L331,193L326,183L320,182L321,161L330,146L343,138L351,128L347,121L349,112L355,104L362,107L356,71L342,61L341,65L330,64L332,74L324,71L311,101L308,104L309,115L300,126L301,132L292,133L290,164L285,170L287,177L279,204Z" fill="#dfddc9" fill-opacity="0" id="ter_Swe" stroke="#ffffff" stroke-width="1" style="fill-opacity: 0;" transform="matrix(1,0,0,1,0,0)"></path><path d="M555,438L551,437L520,441L514,438L511,440L502,433L481,438L470,447L464,457L468,461L468,479L466,491L473,491L490,480L501,482L508,480L531,460L546,462L555,460L557,449Z" fill="#dfddc9" fill-opacity="0" id="ter_Ank" stroke="#ffffff" stroke-width="1" style="fill-opacity: 0;" transform="matrix(1,0,0,1,0,0)"></path><path d="M609,493L584,478L563,479L562,471L556,467L555,460L557,449L555,438L570,427L589,442L594,439L603,441L609,440Z" fill="#dfddc9" fill-opacity="0" id="ter_Arm" stroke="#ffffff" stroke-width="1" style="fill-opacity: 0;" transform="matrix(1,0,0,1,0,0)"></path><path d="M394,376L395,382L401,385L406,396L401,402L387,402L367,406L365,412L360,413L342,410L338,412L335,410L332,410L323,408L321,398L311,394L308,383L311,375L322,370L335,354L337,350L350,347L360,351L368,353L377,360L378,363L384,365Z" fill="#dfddc9" fill-opacity="0" id="ter_Bud" stroke="#ffffff" stroke-width="1" style="fill-opacity: 0;" transform="matrix(1,0,0,1,0,0)"></path><path d="M169,311L153,315L155,320L150,319L148,329L159,331L165,331L172,328L188,332L192,323L184,315Z" fill="#dfddc9" fill-opacity="0" id="ter_Pic" stroke="#ffffff" stroke-width="1" style="fill-opacity: 0;" transform="matrix(1,0,0,1,0,0)"></path><path d="M278,443L272,424L260,417L261,401L270,398L276,399L279,389L276,386L268,385L259,388L255,394L250,397L246,392L233,404L236,411L240,415L246,416L253,418L263,434L274,447Z" fill="#dfddc9" fill-opacity="0" id="ter_Ven" stroke="#ffffff" stroke-width="1" style="fill-opacity: 0;" transform="matrix(1,0,0,1,0,0)"></path><path d="M383,327L385,332L399,338L404,354L403,360L411,361L414,372L423,376L432,372L434,360L445,350L460,345L466,307L470,303L468,295L456,292L390,306L386,309Z" fill="#dfddc9" fill-opacity="0" id="ter_Ukr" stroke="#ffffff" stroke-width="1" style="fill-opacity: 0;" transform="matrix(1,0,0,1,0,0)"></path><path d="M213,302L210,313L208,315L210,326L205,331L204,338L211,346L219,344L237,322L243,322L241,316L232,308Z" fill="#dfddc9" fill-opacity="0" id="ter_Ruh" stroke="#ffffff" stroke-width="1" style="fill-opacity: 0;" transform="matrix(1,0,0,1,0,0)"></path><path d="M534,164L564,159L573,143L598,132L609,117L609,0L540,0L535,9L530,6L517,19L516,33L513,38L513,23L507,20L505,26L499,33L492,48L495,58L488,60L479,57L477,55L481,50L473,43L466,45L472,62L478,66L478,74L472,72L468,74L457,91L469,100L467,106L462,109L444,101L442,110L447,115L454,119L452,122L434,118L426,103L426,94L414,88L412,83L445,84L457,79L459,66L453,61L417,47L405,49L401,45L397,48L388,61L387,68L393,73L392,92L401,110L402,118L410,130L414,147L410,152L412,161L402,177L403,183L411,184L414,187L408,187L400,192L399,197L387,196L371,198L369,202L372,205L382,206L394,205L405,217L409,228L421,229L428,225L439,211L447,209L451,213L457,210L456,207L458,194L476,183L489,184L515,169Z" fill="#dfddc9" fill-opacity="0" id="ter_Stp" stroke="#ffffff" stroke-width="1" style="fill-opacity: 0;" transform="matrix(1,0,0,1,0,0)"></path><path d="M279,243L275,242L269,243L266,240L267,234L266,221L263,223L248,224L245,237L243,247L244,254L254,255L266,255L271,260L278,254L277,250L280,248Z" fill="#dfddc9" fill-opacity="0" id="ter_Den" stroke="#ffffff" stroke-width="1" style="fill-opacity: 0;" transform="matrix(1,0,0,1,0,0)"></path><path d="M146,365L149,372L156,374L165,365L185,344L188,332L172,328L165,331L159,331L148,329L146,337Z" fill="#dfddc9" fill-opacity="0" id="ter_Par" stroke="#ffffff" stroke-width="1" style="fill-opacity: 0;" transform="matrix(1,0,0,1,0,0)"></path><path d="M362,107L368,108L372,120L366,121L359,136L345,151L347,160L350,165L348,178L349,184L357,186L365,191L384,185L402,177L412,161L410,152L414,147L410,130L402,118L401,110L392,92L393,73L387,68L388,61L386,58L388,54L379,48L370,49L369,61L355,62L346,54L342,61L356,71Z" fill="#dfddc9" fill-opacity="0" id="ter_Fin" stroke="#ffffff" stroke-width="1" style="fill-opacity: 0;" transform="matrix(1,0,0,1,0,0)"></path><path d="M173,301L169,311L153,315L155,320L150,319L144,318L142,312L136,310L136,326L124,323L122,318L102,317L88,303L100,291L110,292L120,295L124,291L134,294L147,295L160,298L168,296Z" fill="#d0d0f0" fill-opacity="0" id="ter_ENG" stroke="#ffffff" stroke-width="1" style="fill-opacity: 0;" transform="matrix(1,0,0,1,0,0)"></path><path d="M163,226L163,239L168,246L170,252L169,265L166,269L153,271L150,264L151,248L155,239L155,228Z" fill="#dfddc9" fill-opacity="0" id="ter_Yor" stroke="#ffffff" stroke-width="1" style="fill-opacity: 0;" transform="matrix(1,0,0,1,0,0)"></path><path d="M234,366L243,370L246,369L250,371L267,368L271,370L269,362L275,362L281,356L276,346L268,343L264,329L266,325L278,326L288,321L284,314L288,305L263,310L243,322L237,322L219,344L211,346L213,352L209,363L222,365L225,362L232,363Z" fill="#dfddc9" fill-opacity="0" id="ter_Mun" stroke="#ffffff" stroke-width="1" style="fill-opacity: 0;" transform="matrix(1,0,0,1,0,0)"></path><path d="M100,291L112,287L122,281L130,282L127,276L119,272L116,272L115,265L128,262L143,262L150,264L153,271L150,277L145,281L147,295L134,294L124,291L120,295L110,292Z" fill="#dfddc9" fill-opacity="0" id="ter_Wal" stroke="#ffffff" stroke-width="1" style="fill-opacity: 0;" transform="matrix(1,0,0,1,0,0)"></path><path d="M266,255L271,260L278,254L277,250L280,248L279,243L282,253L289,254L294,245L305,244L312,229L311,220L359,220L349,229L347,243L347,248L348,254L344,262L337,264L334,273L328,274L326,265L314,266L307,273L294,275L286,274L287,267L280,266L266,275L261,274L260,269L256,266L256,263L254,255Z" fill="#d0d0f0" fill-opacity="0" id="ter_BAL" stroke="#ffffff" stroke-width="1" style="fill-opacity: 0;" transform="matrix(1,0,0,1,0,0)"></path><path d="M207,386L204,390L207,396L201,399L204,402L203,410L211,416L222,410L233,415L236,411L233,404L246,392L243,388L229,385L227,390L221,385L213,387Z" fill="#dfddc9" fill-opacity="0" id="ter_Pie" stroke="#ffffff" stroke-width="1" style="fill-opacity: 0;" transform="matrix(1,0,0,1,0,0)"></path><path d="M365,412L360,413L342,410L338,412L335,410L332,410L330,416L331,424L327,429L330,437L337,446L346,452L346,466L350,471L356,471L361,467L369,464L365,461L371,456L366,439L371,438L368,433L365,425L367,421Z" fill="#dfddc9" fill-opacity="0" id="ter_Ser" stroke="#ffffff" stroke-width="1" style="fill-opacity: 0;" transform="matrix(1,0,0,1,0,0)"></path><path d="M241,209L246,210L266,201L270,193L275,203L277,218L276,224L282,236L279,240L279,243L275,242L269,243L266,240L267,234L266,221L263,223L248,224L241,224Z" fill="#d0d0f0" fill-opacity="0" id="ter_SKA" stroke="#ffffff" stroke-width="1" style="fill-opacity: 0;" transform="matrix(1,0,0,1,0,0)"></path><path d="M311,220L314,209L322,206L328,203L331,193L326,183L320,182L321,161L330,146L343,138L351,128L347,121L349,112L355,104L362,107L368,108L372,120L366,121L359,136L345,151L347,160L350,165L348,178L349,184L357,186L365,191L384,185L402,177L403,183L411,184L414,187L408,187L400,192L399,197L387,196L371,198L369,202L365,204L368,210L372,213L373,221L377,227L373,229L366,228L359,220Z" fill="#d0d0f0" fill-opacity="0" id="ter_BOT" stroke="#ffffff" stroke-width="1" style="fill-opacity: 0;" transform="matrix(1,0,0,1,0,0)"></path><path d="M294,275L286,274L287,267L280,266L266,275L266,283L262,287L264,293L261,296L263,310L288,305L296,300L297,296L292,290Z" fill="#dfddc9" fill-opacity="0" id="ter_Ber" stroke="#ffffff" stroke-width="1" style="fill-opacity: 0;" transform="matrix(1,0,0,1,0,0)"></path><path d="M115,469L110,461L124,444L131,439L146,438L157,432L158,425L158,418L169,412L176,417L188,422L198,421L211,416L222,410L233,415L238,431L224,431L221,434L211,436L213,451L218,454L218,458L214,461L206,462L205,466L154,466L148,463L142,469Z" fill="#d0d0f0" fill-opacity="0" id="ter_LYO" stroke="#ffffff" stroke-width="1" style="fill-opacity: 0;" transform="matrix(1,0,0,1,0,0)"></path><path d="M417,489L420,495L417,498L417,507L423,510L427,524L435,523L435,530L441,526L447,528L453,534L464,531L466,521L475,520L485,528L491,530L505,526L511,514L520,517L527,508L530,509L536,494L545,486L555,484L563,479L562,471L556,467L555,460L546,462L531,460L508,480L501,482L490,480L473,491L466,491L452,495L432,493L423,487Z" fill="#dfddc9" fill-opacity="0" id="ter_Smy" stroke="#ffffff" stroke-width="1" style="fill-opacity: 0;" transform="matrix(1,0,0,1,0,0)"></path><path d="M289,511L290,514L295,515L308,500L311,491L304,484L310,480L318,485L322,485L322,480L335,480L339,487L346,498L350,498L347,500L352,508L367,507L371,511L355,510L350,514L357,521L359,533L360,528L367,536L368,531L376,537L383,544L380,547L383,550L400,554L400,559L232,559L234,551L232,544L225,535L231,531L236,524L247,513L258,519L273,531L281,532L282,521L285,513L285,511Z" fill="#d0d0f0" fill-opacity="0" id="ter_ION" stroke="#ffffff" stroke-width="1" style="fill-opacity: 0;" transform="matrix(1,0,0,1,0,0)"></path><path d="M347,243L347,248L348,254L344,262L337,264L334,273L328,274L326,265L314,266L307,273L294,275L292,290L297,296L296,300L320,303L324,299L326,292L341,287L345,289L359,286L365,281L367,265L362,260L356,261L354,251Z" fill="#dfddc9" fill-opacity="0" id="ter_Pru" stroke="#ffffff" stroke-width="1" style="fill-opacity: 0;" transform="matrix(1,0,0,1,0,0)"></path><path d="M333,330L341,330L344,332L353,327L356,323L361,324L367,329L374,327L379,324L383,327L385,332L399,338L404,354L403,360L404,371L394,376L384,365L378,363L377,360L368,353L360,351L350,347L337,350L329,346L322,347L321,339L322,347L321,339L325,340L329,338Z" fill="#dfddc9" fill-opacity="0" id="ter_Gal" stroke="#ffffff" stroke-width="1" style="fill-opacity: 0;" transform="matrix(1,0,0,1,0,0)"></path><path d="M166,269L168,270L171,268L177,270L178,274L176,283L165,293L172,294L168,296L160,298L147,295L145,281L150,277L153,271Z" fill="#dfddc9" fill-opacity="0" id="ter_Lon" stroke="#ffffff" stroke-width="1" style="fill-opacity: 0;" transform="matrix(1,0,0,1,0,0)"></path><path d="M203,520L179,515L169,518L150,511L117,509L106,511L99,515L89,512L84,518L79,520L68,516L68,511L64,514L46,509L42,502L41,494L37,495L33,496L17,518L0,520L0,559L195,559L197,527Z" fill="#dfddc9" fill-opacity="0" id="ter_Naf" stroke="#ffffff" stroke-width="1" style="fill-opacity: 0;" transform="matrix(1,0,0,1,0,0)"></path><path d="M403,360L404,371L394,376L395,382L401,385L406,396L401,402L387,402L367,406L365,412L367,421L370,425L375,423L382,427L390,425L398,427L404,422L410,420L422,420L430,423L432,409L439,404L438,397L427,399L422,382L423,376L414,372L411,361Z" fill="#dfddc9" fill-opacity="0" id="ter_Rum" stroke="#ffffff" stroke-width="1" style="fill-opacity: 0;" transform="matrix(1,0,0,1,0,0)"></path><path d="M281,356L276,346L268,343L264,329L266,325L278,326L288,321L297,322L311,334L314,332L321,339L322,347L316,348L303,346L295,349L292,357Z" fill="#dfddc9" fill-opacity="0" id="ter_Boh" stroke="#ffffff" stroke-width="1" style="fill-opacity: 0;" transform="matrix(1,0,0,1,0,0)"></path><path d="M245,237L243,247L244,254L243,257L245,263L244,270L244,273L235,277L234,274L230,273L226,275L211,274L211,237Z" fill="#d0d0f0" fill-opacity="0" id="ter_HEL" stroke="#ffffff" stroke-width="1" style="fill-opacity: 0;" transform="matrix(1,0,0,1,0,0)"></path><path d="M438,397L446,378L459,375L461,377L459,379L465,383L476,381L478,383L472,385L468,392L477,396L477,401L486,404L488,397L494,396L497,392L507,389L506,384L494,387L485,378L503,364L526,351L527,354L514,365L517,371L520,371L515,384L511,383L510,386L517,393L528,394L554,406L567,408L573,417L570,427L589,442L594,439L603,441L609,440L609,330L597,330L569,321L564,305L554,304L549,284L533,283L526,287L516,286L505,280L494,295L477,289L468,295L470,303L466,307L460,345L445,350L434,360L432,372L423,376L422,382L427,399Z" fill="#dfddc9" fill-opacity="0" id="ter_Sev" stroke="#ffffff" stroke-width="1" style="fill-opacity: 0;" transform="matrix(1,0,0,1,0,0)"></path><path d="M152,194L158,193L171,197L170,202L165,210L158,214L151,215L157,216L161,218L163,226L155,228L145,217L144,213L146,200Z" fill="#dfddc9" fill-opacity="0" id="ter_Edi" stroke="#ffffff" stroke-width="1" style="fill-opacity: 0;" transform="matrix(1,0,0,1,0,0)"></path><path d="M134,417L123,412L113,407L112,399L101,396L96,397L72,384L59,381L54,375L48,374L46,378L39,375L33,381L35,384L32,396L43,395L42,399L55,400L62,407L61,411L52,412L42,432L37,431L40,441L40,441L34,447L36,457L27,468L33,475L34,484L37,490L47,488L52,489L60,486L78,491L83,494L86,485L90,483L98,484L107,474L113,473L115,469L110,461L124,444L131,439L146,438L157,432L158,425L154,427L142,417L135,414Z" fill="#dfddc9" fill-opacity="0" id="ter_Spa" stroke="#ffffff" stroke-width="1" style="fill-opacity: 0;" transform="matrix(1,0,0,1,0,0)"></path><path d="M413,464L412,454L420,451L426,450L422,441L425,427L429,426L430,423L422,420L410,420L404,422L398,427L390,425L382,427L375,423L370,425L367,421L365,425L368,433L371,438L366,439L371,456L365,461L369,464L376,464L388,460L392,472L400,468L408,470L413,464L412,454Z" fill="#dfddc9" fill-opacity="0" id="ter_Bul" stroke="#ffffff" stroke-width="1" style="fill-opacity: 0;" transform="matrix(1,0,0,1,0,0)"></path><path d="M100,291L112,287L122,281L130,282L127,276L119,272L116,272L115,265L128,262L126,256L121,257L132,250L135,250L139,240L136,229L130,227L120,227L110,232L109,246L98,259L87,257L70,261L58,273L88,303Z" fill="#d0d0f0" fill-opacity="0" id="ter_IRI" stroke="#ffffff" stroke-width="1" style="fill-opacity: 0;" transform="matrix(1,0,0,1,0,0)"></path><path d="M333,330L326,327L323,322L320,303L324,299L326,292L341,287L345,289L359,286L365,281L372,283L379,290L386,309L383,327L379,324L374,327L367,329L361,324L356,323L353,327L344,332L341,330Z" fill="#dfddc9" fill-opacity="0" id="ter_War" stroke="#ffffff" stroke-width="1" style="fill-opacity: 0;" transform="matrix(1,0,0,1,0,0)"></path><path d="M540,0L535,9L530,6L517,19L516,33L513,38L513,23L507,20L505,26L499,33L492,48L495,58L488,60L479,57L477,55L481,50L473,43L466,45L472,62L478,66L478,74L472,72L468,74L457,91L469,100L467,106L462,109L444,101L442,110L447,115L454,119L452,122L434,118L426,103L426,94L414,88L412,83L445,84L457,79L459,66L453,61L417,47L405,49L401,45L397,48L391,47L395,41L394,38L384,33L382,40L380,33L377,31L374,38L371,33L366,42L366,33L362,33L362,0Z" fill="#d0d0f0" fill-opacity="0" id="ter_BAR" stroke="#ffffff" stroke-width="1" style="fill-opacity: 0;" transform="matrix(1,0,0,1,0,0)"></path><path d="M292,357L295,349L303,346L316,348L322,347L329,346L337,350L335,354L322,370L311,375L308,383L299,385L294,380L295,362Z" fill="#dfddc9" fill-opacity="0" id="ter_Vie" stroke="#ffffff" stroke-width="1" style="fill-opacity: 0;" transform="matrix(1,0,0,1,0,0)"></path><path d="M304,484L310,480L318,485L322,485L322,480L297,456L300,453L290,453L278,443L274,447L279,451L280,455L279,458L293,481Z" fill="#dfddc9" fill-opacity="0" id="ter_Apu" stroke="#ffffff" stroke-width="1" style="fill-opacity: 0;" transform="matrix(1,0,0,1,0,0)"></path><path d="M247,442L248,447L256,458L271,464L279,458L280,455L279,451L274,447L263,434L250,438Z" fill="#dfddc9" fill-opacity="0" id="ter_Rom" stroke="#ffffff" stroke-width="1" style="fill-opacity: 0;" transform="matrix(1,0,0,1,0,0)"></path><path d="M232,559L234,551L232,544L225,535L231,531L236,524L233,523L224,527L223,518L218,516L212,517L208,521L203,520L197,527L195,559Z" fill="#dfddc9" fill-opacity="0" id="ter_Tun" stroke="#ffffff" stroke-width="1" style="fill-opacity: 0;" transform="matrix(1,0,0,1,0,0)"></path><path d="M609,117L598,132L573,143L564,159L534,164L515,169L489,184L476,183L458,194L456,207L457,210L451,213L447,209L439,211L428,225L421,229L409,228L405,239L404,275L392,278L389,285L379,290L386,309L390,306L456,292L468,295L477,289L494,295L505,280L516,286L526,287L533,283L549,284L554,304L564,305L569,321L597,330L609,330Z" fill="#dfddc9" fill-opacity="0" id="ter_Mos" stroke="#ffffff" stroke-width="1" style="fill-opacity: 0;" transform="matrix(1,0,0,1,0,0)"></path><path d="M37,490L47,488L52,489L60,486L78,491L83,494L86,485L90,483L98,484L107,474L113,473L115,469L142,469L150,471L154,466L205,466L206,476L204,485L208,492L212,492L217,489L218,490L218,516L212,517L208,521L203,520L179,515L169,518L150,511L117,509L106,511L99,515L89,512L84,518L79,520L68,516L68,511L64,514L46,509L42,502L41,494L37,495Z" fill="#d0d0f0" fill-opacity="0" id="ter_WES" stroke="#ffffff" stroke-width="1" style="fill-opacity: 0;" transform="matrix(1,0,0,1,0,0)"></path><path d="M369,202L365,204L368,210L372,213L373,221L377,227L373,229L366,228L359,220L349,229L347,243L354,251L356,261L362,260L367,265L365,281L372,283L379,290L389,285L392,278L404,275L405,239L409,228L405,217L394,205L382,206L372,205Z" fill="#dfddc9" fill-opacity="0" id="ter_Lvn" stroke="#ffffff" stroke-width="1" style="fill-opacity: 0;" transform="matrix(1,0,0,1,0,0)"></path><path d="M245,237L248,224L241,224L241,209L231,201L229,192L233,186L231,180L233,167L237,160L236,154L198,154L171,181L171,197L170,202L165,210L158,214L151,215L157,216L161,218L163,226L163,239L168,246L170,252L169,265L166,269L168,270L171,268L177,270L178,274L176,283L165,293L172,294L168,296L173,301L191,299L198,289L205,276L205,279L207,279L211,274L211,237Z" fill="#d0d0f0" fill-opacity="0" id="ter_NTH" stroke="#ffffff" stroke-width="1" style="fill-opacity: 0;" transform="matrix(1,0,0,1,0,0)"></path><path d="M331,454L331,477L335,480L339,487L350,477L350,471L346,466L346,452L337,446L330,445Z" fill="#dfddc9" fill-opacity="0" id="ter_Alb" stroke="#ffffff" stroke-width="1" style="fill-opacity: 0;" transform="matrix(1,0,0,1,0,0)"></path><path d="M530,509L536,494L545,486L555,484L563,479L584,478L609,493L609,559L528,559L532,535L526,530L525,518Z" fill="#dfddc9" fill-opacity="0" id="ter_Syr" stroke="#ffffff" stroke-width="1" style="fill-opacity: 0;" transform="matrix(1,0,0,1,0,0)"></path><path d="M128,363L121,382L122,384L112,399L113,407L123,412L134,417L135,414L142,417L149,403L157,397L168,395L163,387L165,383L158,380L156,374L149,372L146,365Z" fill="#dfddc9" fill-opacity="0" id="ter_Gas" stroke="#ffffff" stroke-width="1" style="fill-opacity: 0;" transform="matrix(1,0,0,1,0,0)"></path><path d="M150,319L144,318L142,312L136,310L136,326L124,323L122,318L102,317L100,322L103,328L109,329L123,344L122,350L123,357L128,363L146,365L146,337L148,329Z" fill="#dfddc9" fill-opacity="0" id="ter_Bre" stroke="#ffffff" stroke-width="1" style="fill-opacity: 0;" transform="matrix(1,0,0,1,0,0)"></path><path d="M234,366L243,370L246,369L250,371L267,368L271,370L269,362L275,362L281,356L292,357L295,362L294,380L289,385L276,386L268,385L259,388L255,394L250,397L246,392L243,388L245,384L241,378L234,374Z" fill="#dfddc9" fill-opacity="0" id="ter_Tyr" stroke="#ffffff" stroke-width="1" style="fill-opacity: 0;" transform="matrix(1,0,0,1,0,0)"></path><path d="M288,321L297,322L311,334L314,332L321,339L325,340L329,338L333,330L326,327L323,322L320,303L296,300L288,305L284,314Z" fill="#dfddc9" fill-opacity="0" id="ter_Sil" stroke="#ffffff" stroke-width="1" style="fill-opacity: 0;" transform="matrix(1,0,0,1,0,0)"></path><path d="M435,530L441,526L447,528L453,534L464,531L466,521L475,520L485,528L491,530L505,526L511,514L520,517L527,508L530,509L525,518L526,530L532,535L528,559L400,559L400,554L414,552L416,549Z" fill="#d0d0f0" fill-opacity="0" id="ter_EAS" stroke="#ffffff" stroke-width="1" style="fill-opacity: 0;" transform="matrix(1,0,0,1,0,0)"></path><path d="M128,262L126,256L121,257L132,250L135,250L139,240L136,229L130,227L130,223L138,217L138,214L144,213L145,217L155,228L155,239L151,248L150,264L143,262Z" fill="#dfddc9" fill-opacity="0" id="ter_Lvp" stroke="#ffffff" stroke-width="1" style="fill-opacity: 0;" transform="matrix(1,0,0,1,0,0)"></path><path d="M32,396L30,406L17,427L14,427L10,433L13,440L15,441L12,450L13,454L8,462L19,469L27,468L36,457L34,447L40,441L37,431L42,432L52,412L61,411L62,407L55,400L42,399L43,395Z" fill="#dfddc9" fill-opacity="0" id="ter_Por" stroke="#ffffff" stroke-width="1" style="fill-opacity: 0;" transform="matrix(1,0,0,1,0,0)"></path><path d="M440,458L430,455L426,450L422,441L425,427L429,426L430,423L432,409L439,404L438,397L446,378L459,375L461,377L459,379L465,383L476,381L478,383L472,385L468,392L477,396L477,401L486,404L488,397L494,396L497,392L507,389L506,384L494,387L485,378L503,364L526,351L527,354L514,365L517,371L520,371L515,384L511,383L510,386L517,393L528,394L554,406L567,408L573,417L570,427L555,438L551,437L520,441L514,438L511,440L502,433L481,438L470,447L464,457L442,460Z" fill="#d0d0f0" fill-opacity="0" id="ter_BLA" stroke="#ffffff" stroke-width="1" style="fill-opacity: 0;" transform="matrix(1,0,0,1,0,0)"></path><path d="M376,537L371,520L378,521L377,513L386,516L385,509L370,494L371,491L378,494L368,483L371,477L379,484L382,483L381,477L386,478L380,472L392,472L400,468L408,470L410,473L414,475L410,482L409,487L417,486L417,489L420,495L417,498L417,507L423,510L427,524L435,523L435,530L416,549L412,547L387,546L383,544Z" fill="#d0d0f0" fill-opacity="0" id="ter_AEG" stroke="#ffffff" stroke-width="1" style="fill-opacity: 0;" transform="matrix(1,0,0,1,0,0)"></path><path d="M397,48L391,47L395,41L394,38L384,33L382,40L380,33L377,31L374,38L371,33L366,42L366,33L362,33L357,39L343,44L324,54L320,64L310,75L309,84L303,86L292,111L277,132L269,134L264,142L258,141L236,154L237,160L233,167L231,180L233,186L229,192L231,201L241,209L246,210L266,201L270,193L275,203L279,204L287,177L285,170L290,164L292,133L301,132L300,126L309,115L308,104L311,101L324,71L332,74L330,64L341,65L342,61L346,54L355,62L369,61L370,49L379,48L388,54L386,58L388,61Z" fill="#dfddc9" fill-opacity="0" id="ter_Nwy" stroke="#ffffff" stroke-width="1" style="fill-opacity: 0;" transform="matrix(1,0,0,1,0,0)"></path><path d="M192,323L205,331L204,338L211,346L213,352L209,363L208,367L194,382L178,381L178,390L173,396L168,395L163,387L165,383L158,380L156,374L165,365L185,344L188,332Z" fill="#dfddc9" fill-opacity="0" id="ter_Bur" stroke="#ffffff" stroke-width="1" style="fill-opacity: 0;" transform="matrix(1,0,0,1,0,0)"></path><text fill="#000000" fill-opacity="1" font='10px "Arial"' font-family="Verdana" font-size="9px" stroke="none" style="text-anchor: middle; font: 9px Verdana; fill-opacity: 1;" text-anchor="middle" transform="matrix(1,0,0,1,0,0)" x="246" y="425"><tspan dy="3.055379867553711">Tus</tspan></text><text fill="#000000" fill-opacity="1" font='10px "Arial"' font-family="Verdana" font-size="9px" stroke="none" style="text-anchor: middle; font: 9px Verdana; fill-opacity: 1;" text-anchor="middle" transform="matrix(1,0,0,1,0,0)" x="443" y="486"><tspan dy="3.055379867553711">Con</tspan></text><text fill="#000000" fill-opacity="1" font='10px "Arial"' font-family="Verdana" font-size="9px" stroke="none" style="text-anchor: middle; font: 9px Verdana; fill-opacity: 1;" text-anchor="middle" transform="matrix(1,0,0,1,0,0)" x="300" y="492"><tspan dy="3.055379867553711">Nap</tspan></text><text fill="#000000" fill-opacity="1" font='10px "Arial"' font-family="Verdana" font-size="9px" stroke="none" style="text-anchor: middle; font: 9px Verdana; fill-opacity: 1;" text-anchor="middle" transform="matrix(1,0,0,1,0,0)" x="314" y="460"><tspan dy="3.055379867553711">ADR</tspan></text><text fill="#000000" fill-opacity="1" font='10px "Arial"' font-family="Verdana" font-size="9px" stroke="none" style="text-anchor: middle; font: 9px Verdana; fill-opacity: 1;" text-anchor="middle" transform="matrix(1,0,0,1,0,0)" x="251" y="495"><tspan dy="3.055379867553711">TYS</tspan></text><text fill="#000000" fill-opacity="1" font='10px "Arial"' font-family="Verdana" font-size="9px" stroke="none" style="text-anchor: middle; font: 9px Verdana; fill-opacity: 1;" text-anchor="middle" transform="matrix(1,0,0,1,0,0)" x="311" y="425"><tspan dy="3.055379867553711">Tri</tspan></text><text fill="#000000" fill-opacity="1" font='10px "Arial"' font-family="Verdana" font-size="9px" stroke="none" style="text-anchor: middle; font: 9px Verdana; fill-opacity: 1;" text-anchor="middle" transform="matrix(1,0,0,1,0,0)" x="198" y="321"><tspan dy="3.055379867553711">Bel</tspan></text><text fill="#000000" fill-opacity="1" font='10px "Arial"' font-family="Verdana" font-size="9px" stroke="none" style="text-anchor: middle; font: 9px Verdana; fill-opacity: 1;" text-anchor="middle" transform="matrix(1,0,0,1,0,0)" x="226" y="70"><tspan dy="3.055379867553711">NWG</tspan></text><text fill="#000000" fill-opacity="1" font='10px "Arial"' font-family="Verdana" font-size="9px" stroke="none" style="text-anchor: middle; font: 9px Verdana; fill-opacity: 1;" text-anchor="middle" transform="matrix(1,0,0,1,0,0)" x="179" y="412"><tspan dy="3.055379867553711">Mar</tspan></text><text fill="#000000" fill-opacity="1" font='10px "Arial"' font-family="Verdana" font-size="9px" stroke="none" style="text-anchor: middle; font: 9px Verdana; fill-opacity: 1;" text-anchor="middle" transform="matrix(1,0,0,1,0,0)" x="243" y="285"><tspan dy="3.055379867553711">Kie</tspan></text><text fill="#000000" fill-opacity="1" font='10px "Arial"' font-family="Verdana" font-size="9px" stroke="none" style="text-anchor: middle; font: 9px Verdana; fill-opacity: 1;" text-anchor="middle" transform="matrix(1,0,0,1,0,0)" x="56" y="355"><tspan dy="3.055379867553711">MAO</tspan></text><text fill="#000000" fill-opacity="1" font='10px "Arial"' font-family="Verdana" font-size="9px" stroke="none" style="text-anchor: middle; font: 9px Verdana; fill-opacity: 1;" text-anchor="middle" transform="matrix(1,0,0,1,0,0)" x="358" y="490"><tspan dy="3.055379867553711">Gre</tspan></text><text fill="#000000" fill-opacity="1" font='10px "Arial"' font-family="Verdana" font-size="9px" stroke="none" style="text-anchor: middle; font: 9px Verdana; fill-opacity: 1;" text-anchor="middle" transform="matrix(1,0,0,1,0,0)" x="71" y="180"><tspan dy="3.055379867553711">NAO</tspan></text><text fill="#000000" fill-opacity="1" font='10px "Arial"' font-family="Verdana" font-size="9px" stroke="none" style="text-anchor: middle; font: 9px Verdana; fill-opacity: 1;" text-anchor="middle" transform="matrix(1,0,0,1,0,0)" x="139" y="201"><tspan dy="3.055379867553711">Cly</tspan></text><text fill="#000000" fill-opacity="1" font='10px "Arial"' font-family="Verdana" font-size="9px" stroke="none" style="text-anchor: middle; font: 9px Verdana; fill-opacity: 1;" text-anchor="middle" transform="matrix(1,0,0,1,0,0)" x="216" y="290"><tspan dy="3.055379867553711">Hol</tspan></text><text fill="#000000" fill-opacity="1" font='10px "Arial"' font-family="Verdana" font-size="9px" stroke="none" style="text-anchor: middle; font: 9px Verdana; fill-opacity: 1;" text-anchor="middle" transform="matrix(1,0,0,1,0,0)" x="306" y="170"><tspan dy="3.055379867553711">Swe</tspan></text><text fill="#000000" fill-opacity="1" font='10px "Arial"' font-family="Verdana" font-size="9px" stroke="none" style="text-anchor: middle; font: 9px Verdana; fill-opacity: 1;" text-anchor="middle" transform="matrix(1,0,0,1,0,0)" x="516" y="455"><tspan dy="3.055379867553711">Ank</tspan></text><text fill="#000000" fill-opacity="1" font='10px "Arial"' font-family="Verdana" font-size="9px" stroke="none" style="text-anchor: middle; font: 9px Verdana; fill-opacity: 1;" text-anchor="middle" transform="matrix(1,0,0,1,0,0)" x="591" y="467"><tspan dy="3.055379867553711">Arm</tspan></text><text fill="#000000" fill-opacity="1" font='10px "Arial"' font-family="Verdana" font-size="9px" stroke="none" style="text-anchor: middle; font: 9px Verdana; fill-opacity: 1;" text-anchor="middle" transform="matrix(1,0,0,1,0,0)" x="356" y="390"><tspan dy="3.055379867553711">Bud</tspan></text><text fill="#000000" fill-opacity="1" font='10px "Arial"' font-family="Verdana" font-size="9px" stroke="none" style="text-anchor: middle; font: 9px Verdana; fill-opacity: 1;" text-anchor="middle" transform="matrix(1,0,0,1,0,0)" x="174" y="326"><tspan dy="3.055379867553711">Pic</tspan></text><text fill="#000000" fill-opacity="1" font='10px "Arial"' font-family="Verdana" font-size="9px" stroke="none" style="text-anchor: middle; font: 9px Verdana; fill-opacity: 1;" text-anchor="middle" transform="matrix(1,0,0,1,0,0)" x="251" y="407"><tspan dy="3.055379867553711">Ven</tspan></text><text fill="#000000" fill-opacity="1" font='10px "Arial"' font-family="Verdana" font-size="9px" stroke="none" style="text-anchor: middle; font: 9px Verdana; fill-opacity: 1;" text-anchor="middle" transform="matrix(1,0,0,1,0,0)" x="426" y="340"><tspan dy="3.055379867553711">Ukr</tspan></text><text fill="#000000" fill-opacity="1" font='10px "Arial"' font-family="Verdana" font-size="9px" stroke="none" style="text-anchor: middle; font: 9px Verdana; fill-opacity: 1;" text-anchor="middle" transform="matrix(1,0,0,1,0,0)" x="221" y="330"><tspan dy="3.055379867553711">Ruh</tspan></text><text fill="#000000" fill-opacity="1" font='10px "Arial"' font-family="Verdana" font-size="9px" stroke="none" style="text-anchor: middle; font: 9px Verdana; fill-opacity: 1;" text-anchor="middle" transform="matrix(1,0,0,1,0,0)" x="466" y="149"><tspan dy="3.055379867553711">Stp</tspan></text><text fill="#000000" fill-opacity="1" font='10px "Arial"' font-family="Verdana" font-size="9px" stroke="none" style="text-anchor: middle; font: 9px Verdana; fill-opacity: 1;" text-anchor="middle" transform="matrix(1,0,0,1,0,0)" x="424" y="205"><tspan dy="3.055379867553711">sc</tspan></text><text fill="#000000" fill-opacity="1" font='10px "Arial"' font-family="Verdana" font-size="9px" stroke="none" style="text-anchor: middle; font: 9px Verdana; fill-opacity: 1;" text-anchor="middle" transform="matrix(1,0,0,1,0,0)" x="478" y="122"><tspan dy="3.055379867553711">nc</tspan></text><text fill="#000000" fill-opacity="1" font='10px "Arial"' font-family="Verdana" font-size="9px" stroke="none" style="text-anchor: middle; font: 9px Verdana; fill-opacity: 1;" text-anchor="middle" transform="matrix(1,0,0,1,0,0)" x="256" y="235"><tspan dy="3.055379867553711">Den</tspan></text><text fill="#000000" fill-opacity="1" font='10px "Arial"' font-family="Verdana" font-size="9px" stroke="none" style="text-anchor: middle; font: 9px Verdana; fill-opacity: 1;" text-anchor="middle" transform="matrix(1,0,0,1,0,0)" x="161" y="358"><tspan dy="3.055379867553711">Par</tspan></text><text fill="#000000" fill-opacity="1" font='10px "Arial"' font-family="Verdana" font-size="9px" stroke="none" style="text-anchor: middle; font: 9px Verdana; fill-opacity: 1;" text-anchor="middle" transform="matrix(1,0,0,1,0,0)" x="381" y="160"><tspan dy="3.055379867553711">Fin</tspan></text><text fill="#000000" fill-opacity="1" font='10px "Arial"' font-family="Verdana" font-size="9px" stroke="none" style="text-anchor: middle; font: 9px Verdana; fill-opacity: 1;" text-anchor="middle" transform="matrix(1,0,0,1,0,0)" x="141" y="306"><tspan dy="3.055379867553711">ENG</tspan></text><text fill="#000000" fill-opacity="1" font='10px "Arial"' font-family="Verdana" font-size="9px" stroke="none" style="text-anchor: middle; font: 9px Verdana; fill-opacity: 1;" text-anchor="middle" transform="matrix(1,0,0,1,0,0)" x="161" y="254"><tspan dy="3.055379867553711">Yor</tspan></text><text fill="#000000" fill-opacity="1" font='10px "Arial"' font-family="Verdana" font-size="9px" stroke="none" style="text-anchor: middle; font: 9px Verdana; fill-opacity: 1;" text-anchor="middle" transform="matrix(1,0,0,1,0,0)" x="241" y="360"><tspan dy="3.055379867553711">Mun</tspan></text><text fill="#000000" fill-opacity="1" font='10px "Arial"' font-family="Verdana" font-size="9px" stroke="none" style="text-anchor: middle; font: 9px Verdana; fill-opacity: 1;" text-anchor="middle" transform="matrix(1,0,0,1,0,0)" x="136" y="275"><tspan dy="3.055379867553711">Wal</tspan></text><text fill="#000000" fill-opacity="1" font='10px "Arial"' font-family="Verdana" font-size="9px" stroke="none" style="text-anchor: middle; font: 9px Verdana; fill-opacity: 1;" text-anchor="middle" transform="matrix(1,0,0,1,0,0)" x="314" y="260"><tspan dy="3.055379867553711">BAL</tspan></text><text fill="#000000" fill-opacity="1" font='10px "Arial"' font-family="Verdana" font-size="9px" stroke="none" style="text-anchor: middle; font: 9px Verdana; fill-opacity: 1;" text-anchor="middle" transform="matrix(1,0,0,1,0,0)" x="221" y="408"><tspan dy="3.055379867553711">Pie</tspan></text><text fill="#000000" fill-opacity="1" font='10px "Arial"' font-family="Verdana" font-size="9px" stroke="none" style="text-anchor: middle; font: 9px Verdana; fill-opacity: 1;" text-anchor="middle" transform="matrix(1,0,0,1,0,0)" x="356" y="450"><tspan dy="3.055379867553711">Ser</tspan></text><text fill="#000000" fill-opacity="1" font='10px "Arial"' font-family="Verdana" font-size="9px" stroke="none" style="text-anchor: middle; font: 9px Verdana; fill-opacity: 1;" text-anchor="middle" transform="matrix(1,0,0,1,0,0)" x="261" y="220"><tspan dy="3.055379867553711">SKA</tspan></text><text fill="#000000" fill-opacity="1" font='10px "Arial"' font-family="Verdana" font-size="9px" stroke="none" style="text-anchor: middle; font: 9px Verdana; fill-opacity: 1;" text-anchor="middle" transform="matrix(1,0,0,1,0,0)" x="334" y="175"><tspan dy="3.055379867553711">BOT</tspan></text><text fill="#000000" fill-opacity="1" font='10px "Arial"' font-family="Verdana" font-size="9px" stroke="none" style="text-anchor: middle; font: 9px Verdana; fill-opacity: 1;" text-anchor="middle" transform="matrix(1,0,0,1,0,0)" x="278" y="292"><tspan dy="3.055379867553711">Ber</tspan></text><text fill="#000000" fill-opacity="1" font='10px "Arial"' font-family="Verdana" font-size="9px" stroke="none" style="text-anchor: middle; font: 9px Verdana; fill-opacity: 1;" text-anchor="middle" transform="matrix(1,0,0,1,0,0)" x="176" y="457"><tspan dy="3.055379867553711">LYO</tspan></text><text fill="#000000" fill-opacity="1" font='10px "Arial"' font-family="Verdana" font-size="9px" stroke="none" style="text-anchor: middle; font: 9px Verdana; fill-opacity: 1;" text-anchor="middle" transform="matrix(1,0,0,1,0,0)" x="466" y="510"><tspan dy="3.055379867553711">Smy</tspan></text><text fill="#000000" fill-opacity="1" font='10px "Arial"' font-family="Verdana" font-size="9px" stroke="none" style="text-anchor: middle; font: 9px Verdana; fill-opacity: 1;" text-anchor="middle" transform="matrix(1,0,0,1,0,0)" x="321" y="520"><tspan dy="3.055379867553711">ION</tspan></text><text fill="#000000" fill-opacity="1" font='10px "Arial"' font-family="Verdana" font-size="9px" stroke="none" style="text-anchor: middle; font: 9px Verdana; fill-opacity: 1;" text-anchor="middle" transform="matrix(1,0,0,1,0,0)" x="341" y="283"><tspan dy="3.055379867553711">Pru</tspan></text><text fill="#000000" fill-opacity="1" font='10px "Arial"' font-family="Verdana" font-size="9px" stroke="none" style="text-anchor: middle; font: 9px Verdana; fill-opacity: 1;" text-anchor="middle" transform="matrix(1,0,0,1,0,0)" x="361" y="343"><tspan dy="3.055379867553711">Gal</tspan></text><text fill="#000000" fill-opacity="1" font='10px "Arial"' font-family="Verdana" font-size="9px" stroke="none" style="text-anchor: middle; font: 9px Verdana; fill-opacity: 1;" text-anchor="middle" transform="matrix(1,0,0,1,0,0)" x="166" y="280"><tspan dy="3.055379867553711">Lon</tspan></text><text fill="#000000" fill-opacity="1" font='10px "Arial"' font-family="Verdana" font-size="9px" stroke="none" style="text-anchor: middle; font: 9px Verdana; fill-opacity: 1;" text-anchor="middle" transform="matrix(1,0,0,1,0,0)" x="136" y="536"><tspan dy="3.055379867553711">Naf</tspan></text><text fill="#000000" fill-opacity="1" font='10px "Arial"' font-family="Verdana" font-size="9px" stroke="none" style="text-anchor: middle; font: 9px Verdana; fill-opacity: 1;" text-anchor="middle" transform="matrix(1,0,0,1,0,0)" x="416" y="415"><tspan dy="3.055379867553711">Rum</tspan></text><text fill="#000000" fill-opacity="1" font='10px "Arial"' font-family="Verdana" font-size="9px" stroke="none" style="text-anchor: middle; font: 9px Verdana; fill-opacity: 1;" text-anchor="middle" transform="matrix(1,0,0,1,0,0)" x="289" y="347"><tspan dy="3.055379867553711">Boh</tspan></text><text fill="#000000" fill-opacity="1" font='10px "Arial"' font-family="Verdana" font-size="9px" stroke="none" style="text-anchor: middle; font: 9px Verdana; fill-opacity: 1;" text-anchor="middle" transform="matrix(1,0,0,1,0,0)" x="226" y="265"><tspan dy="3.055379867553711">HEL</tspan></text><text fill="#000000" fill-opacity="1" font='10px "Arial"' font-family="Verdana" font-size="9px" stroke="none" style="text-anchor: middle; font: 9px Verdana; fill-opacity: 1;" text-anchor="middle" transform="matrix(1,0,0,1,0,0)" x="546" y="350"><tspan dy="3.055379867553711">Sev</tspan></text><text fill="#000000" fill-opacity="1" font='10px "Arial"' font-family="Verdana" font-size="9px" stroke="none" style="text-anchor: middle; font: 9px Verdana; fill-opacity: 1;" text-anchor="middle" transform="matrix(1,0,0,1,0,0)" x="158" y="202"><tspan dy="3.055379867553711">Edi</tspan></text><text fill="#000000" fill-opacity="1" font='10px "Arial"' font-family="Verdana" font-size="9px" stroke="none" style="text-anchor: middle; font: 9px Verdana; fill-opacity: 1;" text-anchor="middle" transform="matrix(1,0,0,1,0,0)" x="91" y="450"><tspan dy="3.055379867553711">Spa</tspan></text><text fill="#000000" fill-opacity="1" font='10px "Arial"' font-family="Verdana" font-size="9px" stroke="none" style="text-anchor: middle; font: 9px Verdana; fill-opacity: 1;" text-anchor="middle" transform="matrix(1,0,0,1,0,0)" x="58" y="475"><tspan dy="3.055379867553711">sc</tspan></text><text fill="#000000" fill-opacity="1" font='10px "Arial"' font-family="Verdana" font-size="9px" stroke="none" style="text-anchor: middle; font: 9px Verdana; fill-opacity: 1;" text-anchor="middle" transform="matrix(1,0,0,1,0,0)" x="86" y="404"><tspan dy="3.055379867553711">nc</tspan></text><text fill="#000000" fill-opacity="1" font='10px "Arial"' font-family="Verdana" font-size="9px" stroke="none" style="text-anchor: middle; font: 9px Verdana; fill-opacity: 1;" text-anchor="middle" transform="matrix(1,0,0,1,0,0)" x="401" y="443"><tspan dy="3.055379867553711">Bul</tspan></text><text fill="#000000" fill-opacity="1" font='10px "Arial"' font-family="Verdana" font-size="9px" stroke="none" style="text-anchor: middle; font: 9px Verdana; fill-opacity: 1;" text-anchor="middle" transform="matrix(1,0,0,1,0,0)" x="405" y="462"><tspan dy="3.055379867553711">sc</tspan></text><text fill="#000000" fill-opacity="1" font='10px "Arial"' font-family="Verdana" font-size="9px" stroke="none" style="text-anchor: middle; font: 9px Verdana; fill-opacity: 1;" text-anchor="middle" transform="matrix(1,0,0,1,0,0)" x="416" y="440"><tspan dy="3.055379867553711">ec</tspan></text><text fill="#000000" fill-opacity="1" font='10px "Arial"' font-family="Verdana" font-size="9px" stroke="none" style="text-anchor: middle; font: 9px Verdana; fill-opacity: 1;" text-anchor="middle" transform="matrix(1,0,0,1,0,0)" x="101" y="270"><tspan dy="3.055379867553711">IRI</tspan></text><text fill="#000000" fill-opacity="1" font='10px "Arial"' font-family="Verdana" font-size="9px" stroke="none" style="text-anchor: middle; font: 9px Verdana; fill-opacity: 1;" text-anchor="middle" transform="matrix(1,0,0,1,0,0)" x="361" y="304"><tspan dy="3.055379867553711">War</tspan></text><text fill="#000000" fill-opacity="1" font='10px "Arial"' font-family="Verdana" font-size="9px" stroke="none" style="text-anchor: middle; font: 9px Verdana; fill-opacity: 1;" text-anchor="middle" transform="matrix(1,0,0,1,0,0)" x="446" y="15"><tspan dy="3.0553789138793945">BAR</tspan></text><text fill="#000000" fill-opacity="1" font='10px "Arial"' font-family="Verdana" font-size="9px" stroke="none" style="text-anchor: middle; font: 9px Verdana; fill-opacity: 1;" text-anchor="middle" transform="matrix(1,0,0,1,0,0)" x="313" y="370"><tspan dy="3.055379867553711">Vie</tspan></text><text fill="#000000" fill-opacity="1" font='10px "Arial"' font-family="Verdana" font-size="9px" stroke="none" style="text-anchor: middle; font: 9px Verdana; fill-opacity: 1;" text-anchor="middle" transform="matrix(1,0,0,1,0,0)" x="297" y="470"><tspan dy="3.055379867553711">Apu</tspan></text><text fill="#000000" fill-opacity="1" font='10px "Arial"' font-family="Verdana" font-size="9px" stroke="none" style="text-anchor: middle; font: 9px Verdana; fill-opacity: 1;" text-anchor="middle" transform="matrix(1,0,0,1,0,0)" x="268" y="457"><tspan dy="3.055379867553711">Rom</tspan></text><text fill="#000000" fill-opacity="1" font='10px "Arial"' font-family="Verdana" font-size="9px" stroke="none" style="text-anchor: middle; font: 9px Verdana; fill-opacity: 1;" text-anchor="middle" transform="matrix(1,0,0,1,0,0)" x="216" y="555"><tspan dy="3.055379867553711">Tun</tspan></text><text fill="#000000" fill-opacity="1" font='10px "Arial"' font-family="Verdana" font-size="9px" stroke="none" style="text-anchor: middle; font: 9px Verdana; fill-opacity: 1;" text-anchor="middle" transform="matrix(1,0,0,1,0,0)" x="466" y="265"><tspan dy="3.055379867553711">Mos</tspan></text><text fill="#000000" fill-opacity="1" font='10px "Arial"' font-family="Verdana" font-size="9px" stroke="none" style="text-anchor: middle; font: 9px Verdana; fill-opacity: 1;" text-anchor="middle" transform="matrix(1,0,0,1,0,0)" x="166" y="491"><tspan dy="3.055379867553711">WES</tspan></text><text fill="#000000" fill-opacity="1" font='10px "Arial"' font-family="Verdana" font-size="9px" stroke="none" style="text-anchor: middle; font: 9px Verdana; fill-opacity: 1;" text-anchor="middle" transform="matrix(1,0,0,1,0,0)" x="386" y="260"><tspan dy="3.055379867553711">Lvn</tspan></text><text fill="#000000" fill-opacity="1" font='10px "Arial"' font-family="Verdana" font-size="9px" stroke="none" style="text-anchor: middle; font: 9px Verdana; fill-opacity: 1;" text-anchor="middle" transform="matrix(1,0,0,1,0,0)" x="196" y="230"><tspan dy="3.055379867553711">NTH</tspan></text><text fill="#000000" fill-opacity="1" font='10px "Arial"' font-family="Verdana" font-size="9px" stroke="none" style="text-anchor: middle; font: 9px Verdana; fill-opacity: 1;" text-anchor="middle" transform="matrix(1,0,0,1,0,0)" x="339" y="460"><tspan dy="3.055379867553711">Alb</tspan></text><text fill="#000000" fill-opacity="1" font='10px "Arial"' font-family="Verdana" font-size="9px" stroke="none" style="text-anchor: middle; font: 9px Verdana; fill-opacity: 1;" text-anchor="middle" transform="matrix(1,0,0,1,0,0)" x="576" y="535"><tspan dy="3.055379867553711">Syr</tspan></text><text fill="#000000" fill-opacity="1" font='10px "Arial"' font-family="Verdana" font-size="9px" stroke="none" style="text-anchor: middle; font: 9px Verdana; fill-opacity: 1;" text-anchor="middle" transform="matrix(1,0,0,1,0,0)" x="136" y="400"><tspan dy="3.055379867553711">Gas</tspan></text><text fill="#000000" fill-opacity="1" font='10px "Arial"' font-family="Verdana" font-size="9px" stroke="none" style="text-anchor: middle; font: 9px Verdana; fill-opacity: 1;" text-anchor="middle" transform="matrix(1,0,0,1,0,0)" x="136" y="345"><tspan dy="3.055379867553711">Bre</tspan></text><text fill="#000000" fill-opacity="1" font='10px "Arial"' font-family="Verdana" font-size="9px" stroke="none" style="text-anchor: middle; font: 9px Verdana; fill-opacity: 1;" text-anchor="middle" transform="matrix(1,0,0,1,0,0)" x="261" y="380"><tspan dy="3.055379867553711">Tyr</tspan></text><text fill="#000000" fill-opacity="1" font='10px "Arial"' font-family="Verdana" font-size="9px" stroke="none" style="text-anchor: middle; font: 9px Verdana; fill-opacity: 1;" text-anchor="middle" transform="matrix(1,0,0,1,0,0)" x="310" y="325"><tspan dy="3.055379867553711">Sil</tspan></text><text fill="#000000" fill-opacity="1" font='10px "Arial"' font-family="Verdana" font-size="9px" stroke="none" style="text-anchor: middle; font: 9px Verdana; fill-opacity: 1;" text-anchor="middle" transform="matrix(1,0,0,1,0,0)" x="461" y="550"><tspan dy="3.055379867553711">EAS</tspan></text><text fill="#000000" fill-opacity="1" font='10px "Arial"' font-family="Verdana" font-size="9px" stroke="none" style="text-anchor: middle; font: 9px Verdana; fill-opacity: 1;" text-anchor="middle" transform="matrix(1,0,0,1,0,0)" x="140" y="226"><tspan dy="3.055379867553711">Lvp</tspan></text><text fill="#000000" fill-opacity="1" font='10px "Arial"' font-family="Verdana" font-size="9px" stroke="none" style="text-anchor: middle; font: 9px Verdana; fill-opacity: 1;" text-anchor="middle" transform="matrix(1,0,0,1,0,0)" x="28" y="440"><tspan dy="3.055379867553711">Por</tspan></text><text fill="#000000" fill-opacity="1" font='10px "Arial"' font-family="Verdana" font-size="9px" stroke="none" style="text-anchor: middle; font: 9px Verdana; fill-opacity: 1;" text-anchor="middle" transform="matrix(1,0,0,1,0,0)" x="506" y="418"><tspan dy="3.055379867553711">BLA</tspan></text><text fill="#000000" fill-opacity="1" font='10px "Arial"' font-family="Verdana" font-size="9px" stroke="none" style="text-anchor: middle; font: 9px Verdana; fill-opacity: 1;" text-anchor="middle" transform="matrix(1,0,0,1,0,0)" x="398" y="510"><tspan dy="3.055379867553711">AEG</tspan></text><text fill="#000000" fill-opacity="1" font='10px "Arial"' font-family="Verdana" font-size="9px" stroke="none" style="text-anchor: middle; font: 9px Verdana; fill-opacity: 1;" text-anchor="middle" transform="matrix(1,0,0,1,0,0)" x="256" y="175"><tspan dy="3.055379867553711">Nwy</tspan></text><text fill="#000000" fill-opacity="1" font='10px "Arial"' font-family="Verdana" font-size="9px" stroke="none" style="text-anchor: middle; font: 9px Verdana; fill-opacity: 1;" text-anchor="middle" transform="matrix(1,0,0,1,0,0)" x="191" y="371"><tspan dy="3.055379867553711">Bur</tspan></text><rect fill="#bbbb00" height="6" r="0" rx="0" ry="0" stroke="#000" stroke-width="1" style="" transform="matrix(1,0,0,1,0,0)" width="6" x="424" y="475"></rect><rect fill="#00aa00" height="6" r="0" rx="0" ry="0" stroke="#000" stroke-width="1" style="" transform="matrix(1,0,0,1,0,0)" width="6" x="278" y="469"></rect><rect fill="#cc0000" height="6" r="0" rx="0" ry="0" stroke="#000" stroke-width="1" style="" transform="matrix(1,0,0,1,0,0)" width="6" x="290" y="396"></rect><circle cx="186" cy="305" fill="#9999ff" r="3" stroke="#000" stroke-width="1" style="" transform="matrix(1,0,0,1,0,0)"></circle><rect fill="#9999ff" height="6" r="0" rx="0" ry="0" stroke="#000" stroke-width="1" style="" transform="matrix(1,0,0,1,0,0)" width="6" x="190" y="412"></rect><rect fill="#000000" height="6" r="0" rx="0" ry="0" stroke="#000" stroke-width="1" style="" transform="matrix(1,0,0,1,0,0)" width="6" x="254" y="278"></rect><circle cx="378" cy="507" fill="#00aa00" r="3" stroke="#000" stroke-width="1" style="" transform="matrix(1,0,0,1,0,0)"></circle><circle cx="205" cy="284" fill="#000000" r="3" stroke="#000" stroke-width="1" style="" transform="matrix(1,0,0,1,0,0)"></circle><circle cx="323" cy="196" fill="#bb00bb" r="3" stroke="#000" stroke-width="1" style="" transform="matrix(1,0,0,1,0,0)"></circle><rect fill="#bbbb00" height="6" r="0" rx="0" ry="0" stroke="#000" stroke-width="1" style="" transform="matrix(1,0,0,1,0,0)" width="6" x="482" y="469"></rect><rect fill="#cc0000" height="6" r="0" rx="0" ry="0" stroke="#000" stroke-width="1" style="" transform="matrix(1,0,0,1,0,0)" width="6" x="326" y="376"></rect><rect fill="#00aa00" height="6" r="0" rx="0" ry="0" stroke="#000" stroke-width="1" style="" transform="matrix(1,0,0,1,0,0)" width="6" x="263" y="390"></rect><rect fill="#bb00bb" height="6" r="0" rx="0" ry="0" stroke="#000" stroke-width="1" style="" transform="matrix(1,0,0,1,0,0)" width="6" x="418" y="187"></rect><circle cx="272" cy="252" fill="#000000" r="3" stroke="#000" stroke-width="1" style="" transform="matrix(1,0,0,1,0,0)"></circle><rect fill="#9999ff" height="6" r="0" rx="0" ry="0" stroke="#000" stroke-width="1" style="" transform="matrix(1,0,0,1,0,0)" width="6" x="177" y="338"></rect><rect fill="#000000" height="6" r="0" rx="0" ry="0" stroke="#000" stroke-width="1" style="" transform="matrix(1,0,0,1,0,0)" width="6" x="258" y="359"></rect><circle cx="343" cy="419" fill="#cc0000" r="3" stroke="#000" stroke-width="1" style="" transform="matrix(1,0,0,1,0,0)"></circle><rect fill="#000000" height="6" r="0" rx="0" ry="0" stroke="#000" stroke-width="1" style="" transform="matrix(1,0,0,1,0,0)" width="6" x="281" y="298"></rect><rect fill="#bbbb00" height="6" r="0" rx="0" ry="0" stroke="#000" stroke-width="1" style="" transform="matrix(1,0,0,1,0,0)" width="6" x="424" y="502"></rect><rect fill="#0000aa" height="6" r="0" rx="0" ry="0" stroke="#000" stroke-width="1" style="" transform="matrix(1,0,0,1,0,0)" width="6" x="156" y="289"></rect><circle cx="402" cy="413" fill="#bb00bb" r="3" stroke="#000" stroke-width="1" style="" transform="matrix(1,0,0,1,0,0)"></circle><rect fill="#bb00bb" height="6" r="0" rx="0" ry="0" stroke="#000" stroke-width="1" style="" transform="matrix(1,0,0,1,0,0)" width="6" x="479" y="393"></rect><rect fill="#0000aa" height="6" r="0" rx="0" ry="0" stroke="#000" stroke-width="1" style="" transform="matrix(1,0,0,1,0,0)" width="6" x="154" y="219"></rect><circle cx="80" cy="432" fill="#9999ff" r="3" stroke="#000" stroke-width="1" style="" transform="matrix(1,0,0,1,0,0)"></circle><circle cx="377" cy="444" fill="#bbbb00" r="3" stroke="#000" stroke-width="1" style="" transform="matrix(1,0,0,1,0,0)"></circle><rect fill="#bb00bb" height="6" r="0" rx="0" ry="0" stroke="#000" stroke-width="1" style="" transform="matrix(1,0,0,1,0,0)" width="6" x="343" y="302"></rect><rect fill="#cc0000" height="6" r="0" rx="0" ry="0" stroke="#000" stroke-width="1" style="" transform="matrix(1,0,0,1,0,0)" width="6" x="298" y="363"></rect><rect fill="#00aa00" height="6" r="0" rx="0" ry="0" stroke="#000" stroke-width="1" style="" transform="matrix(1,0,0,1,0,0)" width="6" x="268" y="448"></rect><circle cx="220" cy="529" fill="#00aa00" r="3" stroke="#000" stroke-width="1" style="" transform="matrix(1,0,0,1,0,0)"></circle><rect fill="#bb00bb" height="6" r="0" rx="0" ry="0" stroke="#000" stroke-width="1" style="" transform="matrix(1,0,0,1,0,0)" width="6" x="481" y="234"></rect><rect fill="#9999ff" height="6" r="0" rx="0" ry="0" stroke="#000" stroke-width="1" style="" transform="matrix(1,0,0,1,0,0)" width="6" x="106" y="322"></rect><rect fill="#0000aa" height="6" r="0" rx="0" ry="0" stroke="#000" stroke-width="1" style="" transform="matrix(1,0,0,1,0,0)" width="6" x="142" y="253"></rect><circle cx="15" cy="434" fill="#9999ff" r="3" stroke="#000" stroke-width="1" style="" transform="matrix(1,0,0,1,0,0)"></circle><circle cx="270" cy="187" fill="#0000aa" r="3" stroke="#000" stroke-width="1" style="" transform="matrix(1,0,0,1,0,0)"></circle><circle cx="339" cy="469" fill="#cc0000" fill-opacity="0.7" r="6" stroke="#cc0000" stroke-width="2" style="fill-opacity: 0.7;" transform="matrix(1,0,0,1,0,0)"></circle><circle cx="353" cy="378" fill="#cc0000" fill-opacity="0.7" r="6" stroke="#cc0000" stroke-width="2" style="fill-opacity: 0.7;" transform="matrix(1,0,0,1,0,0)"></circle><circle cx="377" cy="343" fill="#cc0000" fill-opacity="0.7" r="6" stroke="#cc0000" stroke-width="2" style="fill-opacity: 0.7;" transform="matrix(1,0,0,1,0,0)"></circle><circle cx="351" cy="438" fill="#cc0000" fill-opacity="0.7" r="6" stroke="#cc0000" stroke-width="2" style="fill-opacity: 0.7;" transform="matrix(1,0,0,1,0,0)"></circle><path d="M156,279L168,279L162,286Z" fill="#0000aa" fill-opacity="0.7" stroke="#0000aa" stroke-width="2" style="fill-opacity: 0.7;" transform="matrix(1,0,0,1,0,0)"></path><path d="M198,213L210,213L204,220Z" fill="#0000aa" fill-opacity="0.7" stroke="#0000aa" stroke-width="2" style="fill-opacity: 0.7;" transform="matrix(1,0,0,1,0,0)"></path><circle cx="264" cy="160" fill="#0000aa" fill-opacity="0.7" r="6" stroke="#0000aa" stroke-width="2" style="fill-opacity: 0.7;" transform="matrix(1,0,0,1,0,0)"></circle><circle cx="197" cy="317" fill="#9999ff" fill-opacity="0.7" r="6" stroke="#9999ff" stroke-width="2" style="fill-opacity: 0.7;" transform="matrix(1,0,0,1,0,0)"></circle><path d="M113,305L125,305L119,312Z" fill="#9999ff" fill-opacity="0.7" stroke="#9999ff" stroke-width="2" style="fill-opacity: 0.7;" transform="matrix(1,0,0,1,0,0)"></path><circle cx="137" cy="388" fill="#9999ff" fill-opacity="0.7" r="6" stroke="#9999ff" stroke-width="2" style="fill-opacity: 0.7;" transform="matrix(1,0,0,1,0,0)"></circle><path d="M84,274L96,274L90,281Z" fill="#9999ff" fill-opacity="0.7" stroke="#9999ff" stroke-width="2" style="fill-opacity: 0.7;" transform="matrix(1,0,0,1,0,0)"></path><path d="M174,442L186,442L180,449Z" fill="#9999ff" fill-opacity="0.7" stroke="#9999ff" stroke-width="2" style="fill-opacity: 0.7;" transform="matrix(1,0,0,1,0,0)"></path><circle cx="125" cy="285" fill="#9999ff" fill-opacity="0.7" r="6" stroke="#9999ff" stroke-width="2" style="fill-opacity: 0.7;" transform="matrix(1,0,0,1,0,0)"></circle><path d="M317,248L329,248L323,255Z" fill="#000000" fill-opacity="0.7" stroke="#000000" stroke-width="2" style="fill-opacity: 0.7;" transform="matrix(1,0,0,1,0,0)"></path><circle cx="279" cy="283" fill="#000000" fill-opacity="0.7" r="6" stroke="#000000" stroke-width="2" style="fill-opacity: 0.7;" transform="matrix(1,0,0,1,0,0)"></circle><path d="M250,243L262,243L256,250Z" fill="#000000" fill-opacity="0.7" stroke="#000000" stroke-width="2" style="fill-opacity: 0.7;" transform="matrix(1,0,0,1,0,0)"></path><circle cx="205" cy="297" fill="#000000" fill-opacity="0.7" r="6" stroke="#000000" stroke-width="2" style="fill-opacity: 0.7;" transform="matrix(1,0,0,1,0,0)"></circle><circle cx="304" cy="314" fill="#000000" fill-opacity="0.7" r="6" stroke="#000000" stroke-width="2" style="fill-opacity: 0.7;" transform="matrix(1,0,0,1,0,0)"></circle><circle cx="366" cy="515" fill="#00aa00" fill-opacity="0.7" r="6" stroke="#00aa00" stroke-width="2" style="fill-opacity: 0.7;" transform="matrix(1,0,0,1,0,0)"></circle><path d="M318,538L330,538L324,545Z" fill="#00aa00" fill-opacity="0.7" stroke="#00aa00" stroke-width="2" style="fill-opacity: 0.7;" transform="matrix(1,0,0,1,0,0)"></path><path d="M240,481L252,481L246,488Z" fill="#00aa00" fill-opacity="0.7" stroke="#00aa00" stroke-width="2" style="fill-opacity: 0.7;" transform="matrix(1,0,0,1,0,0)"></path><circle cx="250" cy="408" fill="#00aa00" fill-opacity="0.7" r="6" stroke="#00aa00" stroke-width="2" style="fill-opacity: 0.7;" transform="matrix(1,0,0,1,0,0)"></circle><path d="M342,197L354,197L348,204Z" fill="#bb00bb" fill-opacity="0.7" stroke="#bb00bb" stroke-width="2" style="fill-opacity: 0.7;" transform="matrix(1,0,0,1,0,0)"></path><path d="M409,403L421,403L415,410Z" fill="#bb00bb" fill-opacity="0.7" stroke="#bb00bb" stroke-width="2" style="fill-opacity: 0.7;" transform="matrix(1,0,0,1,0,0)"></path><circle cx="500" cy="140" fill="#bb00bb" fill-opacity="0.7" r="6" stroke="#bb00bb" stroke-width="2" style="fill-opacity: 0.7;" transform="matrix(1,0,0,1,0,0)"></circle><circle cx="315" cy="140" fill="#bb00bb" fill-opacity="0.7" r="6" stroke="#bb00bb" stroke-width="2" style="fill-opacity: 0.7;" transform="matrix(1,0,0,1,0,0)"></circle><circle cx="361" cy="315" fill="#bb00bb" fill-opacity="0.7" r="6" stroke="#bb00bb" stroke-width="2" style="fill-opacity: 0.7;" transform="matrix(1,0,0,1,0,0)"></circle><path d="M397,522L409,522L403,529Z" fill="#bbbb00" fill-opacity="0.7" stroke="#bbbb00" stroke-width="2" style="fill-opacity: 0.7;" transform="matrix(1,0,0,1,0,0)"></path><circle cx="395" cy="443" fill="#bbbb00" fill-opacity="0.7" r="6" stroke="#bbbb00" stroke-width="2" style="fill-opacity: 0.7;" transform="matrix(1,0,0,1,0,0)"></circle><path d="M438,469L450,469L444,476Z" fill="#bbbb00" fill-opacity="0.7" stroke="#bbbb00" stroke-width="2" style="fill-opacity: 0.7;" transform="matrix(1,0,0,1,0,0)"></path><circle cx="490" cy="505" fill="#bbbb00" fill-opacity="0.7" r="6" stroke="#bbbb00" stroke-width="2" style="fill-opacity: 0.7;" transform="matrix(1,0,0,1,0,0)"></circle><path d="M136,239L148,239L142,246Z" fill="none" fill-opacity="0" stroke="#000000" stroke-dasharray="1.5,1.5" stroke-width="1.5" style="fill-opacity: 0;" transform="matrix(1,0,0,1,0,0)"></path><path d="M293,503L305,503L299,510Z" fill="none" fill-opacity="0" stroke="#000000" stroke-dasharray="1.5,1.5" stroke-width="1.5" style="fill-opacity: 0;" transform="matrix(1,0,0,1,0,0)"></path><circle cx="515" cy="330" fill="none" fill-opacity="0" r="6" stroke="#000000" stroke-dasharray="1.5,1.5" stroke-width="1.5" style="fill-opacity: 0;" transform="matrix(1,0,0,1,0,0)"></circle><path d="M233,415L238,431L247,442L250,438L263,434L253,418L246,416L240,415L236,411Z" fill="#000000" fill-opacity="0" stroke="#000000" stroke-width="0" style="fill-opacity: 0;" transform="matrix(1,0,0,1,0,0)"></path><path d="M408,470L410,473L414,475L410,482L409,487L417,486L417,489L423,487L432,493L452,495L466,491L468,479L468,461L464,457L442,460L440,458L430,455L426,450L420,451L412,454L413,464Z" fill="#000000" fill-opacity="0" stroke="#000000" stroke-width="0" style="fill-opacity: 0;" transform="matrix(1,0,0,1,0,0)"></path><path d="M271,464L276,474L290,487L294,502L289,511L290,514L295,515L308,500L311,491L304,484L293,481L279,458Z" fill="#000000" fill-opacity="0" stroke="#000000" stroke-width="0" style="fill-opacity: 0;" transform="matrix(1,0,0,1,0,0)"></path><path d="M322,480L297,456L300,453L290,453L278,443L272,424L260,417L261,401L270,398L276,399L275,403L278,410L282,401L286,402L289,418L306,436L331,454L331,477L335,480Z" fill="#000000" fill-opacity="0" stroke="#000000" stroke-width="0" style="fill-opacity: 0;" transform="matrix(1,0,0,1,0,0)"></path><path d="M238,431L247,442L248,447L256,458L271,464L276,474L290,487L294,502L289,511L285,511L285,508L276,510L263,510L257,507L252,508L247,513L236,524L233,523L224,527L223,518L218,516L218,490L220,490L224,468L222,458L218,458L218,454L223,450L225,444L225,436L224,431Z" fill="#000000" fill-opacity="0" stroke="#000000" stroke-width="0" style="fill-opacity: 0;" transform="matrix(1,0,0,1,0,0)"></path><path d="M276,399L275,403L278,410L282,401L286,402L289,418L306,436L331,454L330,445L337,446L330,437L327,429L331,424L330,416L332,410L323,408L321,398L311,394L308,383L299,385L294,380L289,385L276,386L279,389Z" fill="#000000" fill-opacity="0" stroke="#000000" stroke-width="0" style="fill-opacity: 0;" transform="matrix(1,0,0,1,0,0)"></path><path d="M191,299L194,303L206,306L205,311L208,315L210,326L205,331L192,323L184,315L169,311L173,301Z" fill="#000000" fill-opacity="0" stroke="#000000" stroke-width="0" style="fill-opacity: 0;" transform="matrix(1,0,0,1,0,0)"></path><path d="M362,33L357,39L343,44L324,54L320,64L310,75L309,84L303,86L292,111L277,132L269,134L264,142L258,141L236,154L198,154L171,181L171,197L158,193L152,194L154,188L161,185L162,181L148,177L148,0L362,0Z" fill="#000000" fill-opacity="0" stroke="#000000" stroke-width="0" style="fill-opacity: 0;" transform="matrix(1,0,0,1,0,0)"></path><path d="M142,417L149,403L157,397L168,395L173,396L178,390L178,381L194,382L197,385L203,379L207,386L204,390L207,396L201,399L204,402L203,410L211,416L198,421L188,422L176,417L169,412L158,418L158,425L154,427Z" fill="#000000" fill-opacity="0" stroke="#000000" stroke-width="0" style="fill-opacity: 0;" transform="matrix(1,0,0,1,0,0)"></path><path d="M244,254L243,257L245,263L244,270L244,273L235,277L234,274L230,273L226,275L227,280L225,292L220,298L215,297L213,302L232,308L241,316L243,322L263,310L261,296L264,293L262,287L266,283L266,275L261,274L260,269L256,266L256,263L254,255Z" fill="#000000" fill-opacity="0" stroke="#000000" stroke-width="0" style="fill-opacity: 0;" transform="matrix(1,0,0,1,0,0)"></path><path d="M102,317L100,322L103,328L109,329L123,344L122,350L123,357L128,363L121,382L122,384L112,399L101,396L96,397L72,384L59,381L54,375L48,374L46,378L39,375L33,381L35,384L32,396L30,406L17,427L14,427L10,433L13,440L15,441L12,450L13,454L8,462L19,469L27,468L33,475L34,484L37,490L37,495L33,496L17,518L0,520L0,273L58,273Z" fill="#000000" fill-opacity="0" stroke="#000000" stroke-width="0" style="fill-opacity: 0;" transform="matrix(1,0,0,1,0,0)"></path><path d="M339,487L346,498L350,498L347,500L352,508L367,507L371,511L355,510L350,514L357,521L359,533L360,528L367,536L368,531L376,537L371,520L378,521L377,513L386,516L385,509L370,494L371,491L378,494L368,483L371,477L379,484L382,483L381,477L386,478L380,472L392,472L388,460L376,464L369,464L361,467L356,471L350,471L350,477Z" fill="#000000" fill-opacity="0" stroke="#000000" stroke-width="0" style="fill-opacity: 0;" transform="matrix(1,0,0,1,0,0)"></path><path d="M70,261L64,250L67,242L71,245L81,234L74,228L80,225L78,218L82,217L89,220L94,220L95,218L94,216L97,216L101,212L110,212L119,217L120,227L130,227L130,223L138,217L138,214L130,208L129,197L139,189L140,182L148,177L148,0L0,0L0,273L58,273Z" fill="#000000" fill-opacity="0" stroke="#000000" stroke-width="0" style="fill-opacity: 0;" transform="matrix(1,0,0,1,0,0)"></path><path d="M138,214L130,208L129,197L139,189L140,182L148,177L162,181L161,185L154,188L152,194L146,200L144,213Z" fill="#000000" fill-opacity="0" stroke="#000000" stroke-width="0" style="fill-opacity: 0;" transform="matrix(1,0,0,1,0,0)"></path><path d="M226,275L227,280L225,292L220,298L215,297L213,302L210,313L208,315L205,311L206,306L194,303L191,299L198,289L205,276L205,279L207,279L211,274Z" fill="#000000" fill-opacity="0" stroke="#000000" stroke-width="0" style="fill-opacity: 0;" transform="matrix(1,0,0,1,0,0)"></path><path d="M275,203L277,218L276,224L282,236L279,240L279,243L282,253L289,254L294,245L305,244L312,229L311,220L314,209L322,206L328,203L331,193L326,183L320,182L321,161L330,146L343,138L351,128L347,121L349,112L355,104L362,107L356,71L342,61L341,65L330,64L332,74L324,71L311,101L308,104L309,115L300,126L301,132L292,133L290,164L285,170L287,177L279,204Z" fill="#000000" fill-opacity="0" stroke="#000000" stroke-width="0" style="fill-opacity: 0;" transform="matrix(1,0,0,1,0,0)"></path><path d="M555,438L551,437L520,441L514,438L511,440L502,433L481,438L470,447L464,457L468,461L468,479L466,491L473,491L490,480L501,482L508,480L531,460L546,462L555,460L557,449Z" fill="#000000" fill-opacity="0" stroke="#000000" stroke-width="0" style="fill-opacity: 0;" transform="matrix(1,0,0,1,0,0)"></path><path d="M609,493L584,478L563,479L562,471L556,467L555,460L557,449L555,438L570,427L589,442L594,439L603,441L609,440Z" fill="#000000" fill-opacity="0" stroke="#000000" stroke-width="0" style="fill-opacity: 0;" transform="matrix(1,0,0,1,0,0)"></path><path d="M394,376L395,382L401,385L406,396L401,402L387,402L367,406L365,412L360,413L342,410L338,412L335,410L332,410L323,408L321,398L311,394L308,383L311,375L322,370L335,354L337,350L350,347L360,351L368,353L377,360L378,363L384,365Z" fill="#000000" fill-opacity="0" stroke="#000000" stroke-width="0" style="fill-opacity: 0;" transform="matrix(1,0,0,1,0,0)"></path><path d="M169,311L153,315L155,320L150,319L148,329L159,331L165,331L172,328L188,332L192,323L184,315Z" fill="#000000" fill-opacity="0" stroke="#000000" stroke-width="0" style="fill-opacity: 0;" transform="matrix(1,0,0,1,0,0)"></path><path d="M278,443L272,424L260,417L261,401L270,398L276,399L279,389L276,386L268,385L259,388L255,394L250,397L246,392L233,404L236,411L240,415L246,416L253,418L263,434L274,447Z" fill="#000000" fill-opacity="0" stroke="#000000" stroke-width="0" style="fill-opacity: 0;" transform="matrix(1,0,0,1,0,0)"></path><path d="M383,327L385,332L399,338L404,354L403,360L411,361L414,372L423,376L432,372L434,360L445,350L460,345L466,307L470,303L468,295L456,292L390,306L386,309Z" fill="#000000" fill-opacity="0" stroke="#000000" stroke-width="0" style="fill-opacity: 0;" transform="matrix(1,0,0,1,0,0)"></path><path d="M213,302L210,313L208,315L210,326L205,331L204,338L211,346L219,344L237,322L243,322L241,316L232,308Z" fill="#000000" fill-opacity="0" stroke="#000000" stroke-width="0" style="fill-opacity: 0;" transform="matrix(1,0,0,1,0,0)"></path><path d="M414,147L410,152L412,161L402,177L403,183L411,184L414,187L408,187L400,192L399,197L387,196L371,198L369,202L372,205L382,206L394,205L405,217L409,228L421,229L428,225L439,211L447,209L451,213L457,210L456,207L458,194L476,183Z" fill="#000000" fill-opacity="0" stroke="#000000" stroke-width="0" style="fill-opacity: 0;" transform="matrix(1,0,0,1,0,0)"></path><path d="M534,164L564,159L573,143L598,132L609,117L609,0L540,0L535,9L530,6L517,19L516,33L513,38L513,23L507,20L505,26L499,33L492,48L495,58L488,60L479,57L477,55L481,50L473,43L466,45L472,62L478,66L478,74L472,72L468,74L457,91L469,100L467,106L462,109L444,101L442,110L447,115L454,119L452,122L434,118L426,103L426,94L414,88L412,83L445,84L457,79L459,66L453,61L417,47L405,49L401,45L397,48L388,61L387,68L393,73L392,92L401,110L402,118L410,130L414,147L476,183L489,184L515,169Z" fill="#000000" fill-opacity="0" stroke="#000000" stroke-width="0" style="fill-opacity: 0;" transform="matrix(1,0,0,1,0,0)"></path><path d="M279,243L275,242L269,243L266,240L267,234L266,221L263,223L248,224L245,237L243,247L244,254L254,255L266,255L271,260L278,254L277,250L280,248Z" fill="#000000" fill-opacity="0" stroke="#000000" stroke-width="0" style="fill-opacity: 0;" transform="matrix(1,0,0,1,0,0)"></path><path d="M146,365L149,372L156,374L165,365L185,344L188,332L172,328L165,331L159,331L148,329L146,337Z" fill="#000000" fill-opacity="0" stroke="#000000" stroke-width="0" style="fill-opacity: 0;" transform="matrix(1,0,0,1,0,0)"></path><path d="M362,107L368,108L372,120L366,121L359,136L345,151L347,160L350,165L348,178L349,184L357,186L365,191L384,185L402,177L412,161L410,152L414,147L410,130L402,118L401,110L392,92L393,73L387,68L388,61L386,58L388,54L379,48L370,49L369,61L355,62L346,54L342,61L356,71Z" fill="#000000" fill-opacity="0" stroke="#000000" stroke-width="0" style="fill-opacity: 0;" transform="matrix(1,0,0,1,0,0)"></path><path d="M173,301L169,311L153,315L155,320L150,319L144,318L142,312L136,310L136,326L124,323L122,318L102,317L88,303L100,291L110,292L120,295L124,291L134,294L147,295L160,298L168,296Z" fill="#000000" fill-opacity="0" stroke="#000000" stroke-width="0" style="fill-opacity: 0;" transform="matrix(1,0,0,1,0,0)"></path><path d="M163,226L163,239L168,246L170,252L169,265L166,269L153,271L150,264L151,248L155,239L155,228Z" fill="#000000" fill-opacity="0" stroke="#000000" stroke-width="0" style="fill-opacity: 0;" transform="matrix(1,0,0,1,0,0)"></path><path d="M234,366L243,370L246,369L250,371L267,368L271,370L269,362L275,362L281,356L276,346L268,343L264,329L266,325L278,326L288,321L284,314L288,305L263,310L243,322L237,322L219,344L211,346L213,352L209,363L222,365L225,362L232,363Z" fill="#000000" fill-opacity="0" stroke="#000000" stroke-width="0" style="fill-opacity: 0;" transform="matrix(1,0,0,1,0,0)"></path><path d="M100,291L112,287L122,281L130,282L127,276L119,272L116,272L115,265L128,262L143,262L150,264L153,271L150,277L145,281L147,295L134,294L124,291L120,295L110,292Z" fill="#000000" fill-opacity="0" stroke="#000000" stroke-width="0" style="fill-opacity: 0;" transform="matrix(1,0,0,1,0,0)"></path><path d="M266,255L271,260L278,254L277,250L280,248L279,243L282,253L289,254L294,245L305,244L312,229L311,220L359,220L349,229L347,243L347,248L348,254L344,262L337,264L334,273L328,274L326,265L314,266L307,273L294,275L286,274L287,267L280,266L266,275L261,274L260,269L256,266L256,263L254,255Z" fill="#000000" fill-opacity="0" stroke="#000000" stroke-width="0" style="fill-opacity: 0;" transform="matrix(1,0,0,1,0,0)"></path><path d="M207,386L204,390L207,396L201,399L204,402L203,410L211,416L222,410L233,415L236,411L233,404L246,392L243,388L229,385L227,390L221,385L213,387Z" fill="#000000" fill-opacity="0" stroke="#000000" stroke-width="0" style="fill-opacity: 0;" transform="matrix(1,0,0,1,0,0)"></path><path d="M365,412L360,413L342,410L338,412L335,410L332,410L330,416L331,424L327,429L330,437L337,446L346,452L346,466L350,471L356,471L361,467L369,464L365,461L371,456L366,439L371,438L368,433L365,425L367,421Z" fill="#000000" fill-opacity="0" stroke="#000000" stroke-width="0" style="fill-opacity: 0;" transform="matrix(1,0,0,1,0,0)"></path><path d="M241,209L246,210L266,201L270,193L275,203L277,218L276,224L282,236L279,240L279,243L275,242L269,243L266,240L267,234L266,221L263,223L248,224L241,224Z" fill="#000000" fill-opacity="0" stroke="#000000" stroke-width="0" style="fill-opacity: 0;" transform="matrix(1,0,0,1,0,0)"></path><path d="M311,220L314,209L322,206L328,203L331,193L326,183L320,182L321,161L330,146L343,138L351,128L347,121L349,112L355,104L362,107L368,108L372,120L366,121L359,136L345,151L347,160L350,165L348,178L349,184L357,186L365,191L384,185L402,177L403,183L411,184L414,187L408,187L400,192L399,197L387,196L371,198L369,202L365,204L368,210L372,213L373,221L377,227L373,229L366,228L359,220Z" fill="#000000" fill-opacity="0" stroke="#000000" stroke-width="0" style="fill-opacity: 0;" transform="matrix(1,0,0,1,0,0)"></path><path d="M294,275L286,274L287,267L280,266L266,275L266,283L262,287L264,293L261,296L263,310L288,305L296,300L297,296L292,290Z" fill="#000000" fill-opacity="0" stroke="#000000" stroke-width="0" style="fill-opacity: 0;" transform="matrix(1,0,0,1,0,0)"></path><path d="M115,469L110,461L124,444L131,439L146,438L157,432L158,425L158,418L169,412L176,417L188,422L198,421L211,416L222,410L233,415L238,431L224,431L221,434L211,436L213,451L218,454L218,458L214,461L206,462L205,466L154,466L148,463L142,469Z" fill="#000000" fill-opacity="0" stroke="#000000" stroke-width="0" style="fill-opacity: 0;" transform="matrix(1,0,0,1,0,0)"></path><path d="M417,489L420,495L417,498L417,507L423,510L427,524L435,523L435,530L441,526L447,528L453,534L464,531L466,521L475,520L485,528L491,530L505,526L511,514L520,517L527,508L530,509L536,494L545,486L555,484L563,479L562,471L556,467L555,460L546,462L531,460L508,480L501,482L490,480L473,491L466,491L452,495L432,493L423,487Z" fill="#000000" fill-opacity="0" stroke="#000000" stroke-width="0" style="fill-opacity: 0;" transform="matrix(1,0,0,1,0,0)"></path><path d="M289,511L290,514L295,515L308,500L311,491L304,484L310,480L318,485L322,485L322,480L335,480L339,487L346,498L350,498L347,500L352,508L367,507L371,511L355,510L350,514L357,521L359,533L360,528L367,536L368,531L376,537L383,544L380,547L383,550L400,554L400,559L232,559L234,551L232,544L225,535L231,531L236,524L247,513L258,519L273,531L281,532L282,521L285,513L285,511Z" fill="#000000" fill-opacity="0" stroke="#000000" stroke-width="0" style="fill-opacity: 0;" transform="matrix(1,0,0,1,0,0)"></path><path d="M347,243L347,248L348,254L344,262L337,264L334,273L328,274L326,265L314,266L307,273L294,275L292,290L297,296L296,300L320,303L324,299L326,292L341,287L345,289L359,286L365,281L367,265L362,260L356,261L354,251Z" fill="#000000" fill-opacity="0" stroke="#000000" stroke-width="0" style="fill-opacity: 0;" transform="matrix(1,0,0,1,0,0)"></path><path d="M333,330L341,330L344,332L353,327L356,323L361,324L367,329L374,327L379,324L383,327L385,332L399,338L404,354L403,360L404,371L394,376L384,365L378,363L377,360L368,353L360,351L350,347L337,350L329,346L322,347L321,339L322,347L321,339L325,340L329,338Z" fill="#000000" fill-opacity="0" stroke="#000000" stroke-width="0" style="fill-opacity: 0;" transform="matrix(1,0,0,1,0,0)"></path><path d="M166,269L168,270L171,268L177,270L178,274L176,283L165,293L172,294L168,296L160,298L147,295L145,281L150,277L153,271Z" fill="#000000" fill-opacity="0" stroke="#000000" stroke-width="0" style="fill-opacity: 0;" transform="matrix(1,0,0,1,0,0)"></path><path d="M203,520L179,515L169,518L150,511L117,509L106,511L99,515L89,512L84,518L79,520L68,516L68,511L64,514L46,509L42,502L41,494L37,495L33,496L17,518L0,520L0,559L195,559L197,527Z" fill="#000000" fill-opacity="0" stroke="#000000" stroke-width="0" style="fill-opacity: 0;" transform="matrix(1,0,0,1,0,0)"></path><path d="M403,360L404,371L394,376L395,382L401,385L406,396L401,402L387,402L367,406L365,412L367,421L370,425L375,423L382,427L390,425L398,427L404,422L410,420L422,420L430,423L432,409L439,404L438,397L427,399L422,382L423,376L414,372L411,361Z" fill="#000000" fill-opacity="0" stroke="#000000" stroke-width="0" style="fill-opacity: 0;" transform="matrix(1,0,0,1,0,0)"></path><path d="M281,356L276,346L268,343L264,329L266,325L278,326L288,321L297,322L311,334L314,332L321,339L322,347L316,348L303,346L295,349L292,357Z" fill="#000000" fill-opacity="0" stroke="#000000" stroke-width="0" style="fill-opacity: 0;" transform="matrix(1,0,0,1,0,0)"></path><path d="M245,237L243,247L244,254L243,257L245,263L244,270L244,273L235,277L234,274L230,273L226,275L211,274L211,237Z" fill="#000000" fill-opacity="0" stroke="#000000" stroke-width="0" style="fill-opacity: 0;" transform="matrix(1,0,0,1,0,0)"></path><path d="M438,397L446,378L459,375L461,377L459,379L465,383L476,381L478,383L472,385L468,392L477,396L477,401L486,404L488,397L494,396L497,392L507,389L506,384L494,387L485,378L503,364L526,351L527,354L514,365L517,371L520,371L515,384L511,383L510,386L517,393L528,394L554,406L567,408L573,417L570,427L589,442L594,439L603,441L609,440L609,330L597,330L569,321L564,305L554,304L549,284L533,283L526,287L516,286L505,280L494,295L477,289L468,295L470,303L466,307L460,345L445,350L434,360L432,372L423,376L422,382L427,399Z" fill="#000000" fill-opacity="0" stroke="#000000" stroke-width="0" style="fill-opacity: 0;" transform="matrix(1,0,0,1,0,0)"></path><path d="M152,194L158,193L171,197L170,202L165,210L158,214L151,215L157,216L161,218L163,226L155,228L145,217L144,213L146,200Z" fill="#000000" fill-opacity="0" stroke="#000000" stroke-width="0" style="fill-opacity: 0;" transform="matrix(1,0,0,1,0,0)"></path><path d="M134,417L40,441L34,447L36,457L27,468L33,475L34,484L37,490L47,488L52,489L60,486L78,491L83,494L86,485L90,483L98,484L107,474L113,473L115,469L110,461L124,444L131,439L146,438L157,432L158,425L154,427L142,417L135,414Z" fill="#000000" fill-opacity="0" stroke="#000000" stroke-width="0" style="fill-opacity: 0;" transform="matrix(1,0,0,1,0,0)"></path><path d="M134,417L123,412L113,407L112,399L101,396L96,397L72,384L59,381L54,375L48,374L46,378L39,375L33,381L35,384L32,396L43,395L42,399L55,400L62,407L61,411L52,412L42,432L37,431L40,441" fill="#000000" fill-opacity="0" stroke="#000000" stroke-width="0" style="fill-opacity: 0;" transform="matrix(1,0,0,1,0,0)"></path><path d="M413,464L412,454L371,438L366,439L371,456L365,461L369,464L376,464L388,460L392,472L400,468L408,470L413,464L412,454Z" fill="#000000" fill-opacity="0" stroke="#000000" stroke-width="0" style="fill-opacity: 0;" transform="matrix(1,0,0,1,0,0)"></path><path d="M412,454L420,451L426,450L422,441L425,427L429,426L430,423L422,420L410,420L404,422L398,427L390,425L382,427L375,423L370,425L367,421L365,425L368,433L371,438Z" fill="#000000" fill-opacity="0" stroke="#000000" stroke-width="0" style="fill-opacity: 0;" transform="matrix(1,0,0,1,0,0)"></path><path d="M100,291L112,287L122,281L130,282L127,276L119,272L116,272L115,265L128,262L126,256L121,257L132,250L135,250L139,240L136,229L130,227L120,227L110,232L109,246L98,259L87,257L70,261L58,273L88,303Z" fill="#000000" fill-opacity="0" stroke="#000000" stroke-width="0" style="fill-opacity: 0;" transform="matrix(1,0,0,1,0,0)"></path><path d="M333,330L326,327L323,322L320,303L324,299L326,292L341,287L345,289L359,286L365,281L372,283L379,290L386,309L383,327L379,324L374,327L367,329L361,324L356,323L353,327L344,332L341,330Z" fill="#000000" fill-opacity="0" stroke="#000000" stroke-width="0" style="fill-opacity: 0;" transform="matrix(1,0,0,1,0,0)"></path><path d="M540,0L535,9L530,6L517,19L516,33L513,38L513,23L507,20L505,26L499,33L492,48L495,58L488,60L479,57L477,55L481,50L473,43L466,45L472,62L478,66L478,74L472,72L468,74L457,91L469,100L467,106L462,109L444,101L442,110L447,115L454,119L452,122L434,118L426,103L426,94L414,88L412,83L445,84L457,79L459,66L453,61L417,47L405,49L401,45L397,48L391,47L395,41L394,38L384,33L382,40L380,33L377,31L374,38L371,33L366,42L366,33L362,33L362,0Z" fill="#000000" fill-opacity="0" stroke="#000000" stroke-width="0" style="fill-opacity: 0;" transform="matrix(1,0,0,1,0,0)"></path><path d="M292,357L295,349L303,346L316,348L322,347L329,346L337,350L335,354L322,370L311,375L308,383L299,385L294,380L295,362Z" fill="#000000" fill-opacity="0" stroke="#000000" stroke-width="0" style="fill-opacity: 0;" transform="matrix(1,0,0,1,0,0)"></path><path d="M304,484L310,480L318,485L322,485L322,480L297,456L300,453L290,453L278,443L274,447L279,451L280,455L279,458L293,481Z" fill="#000000" fill-opacity="0" stroke="#000000" stroke-width="0" style="fill-opacity: 0;" transform="matrix(1,0,0,1,0,0)"></path><path d="M247,442L248,447L256,458L271,464L279,458L280,455L279,451L274,447L263,434L250,438Z" fill="#000000" fill-opacity="0" stroke="#000000" stroke-width="0" style="fill-opacity: 0;" transform="matrix(1,0,0,1,0,0)"></path><path d="M232,559L234,551L232,544L225,535L231,531L236,524L233,523L224,527L223,518L218,516L212,517L208,521L203,520L197,527L195,559Z" fill="#000000" fill-opacity="0" stroke="#000000" stroke-width="0" style="fill-opacity: 0;" transform="matrix(1,0,0,1,0,0)"></path><path d="M609,117L598,132L573,143L564,159L534,164L515,169L489,184L476,183L458,194L456,207L457,210L451,213L447,209L439,211L428,225L421,229L409,228L405,239L404,275L392,278L389,285L379,290L386,309L390,306L456,292L468,295L477,289L494,295L505,280L516,286L526,287L533,283L549,284L554,304L564,305L569,321L597,330L609,330Z" fill="#000000" fill-opacity="0" stroke="#000000" stroke-width="0" style="fill-opacity: 0;" transform="matrix(1,0,0,1,0,0)"></path><path d="M37,490L47,488L52,489L60,486L78,491L83,494L86,485L90,483L98,484L107,474L113,473L115,469L142,469L150,471L154,466L205,466L206,476L204,485L208,492L212,492L217,489L218,490L218,516L212,517L208,521L203,520L179,515L169,518L150,511L117,509L106,511L99,515L89,512L84,518L79,520L68,516L68,511L64,514L46,509L42,502L41,494L37,495Z" fill="#000000" fill-opacity="0" stroke="#000000" stroke-width="0" style="fill-opacity: 0;" transform="matrix(1,0,0,1,0,0)"></path><path d="M369,202L365,204L368,210L372,213L373,221L377,227L373,229L366,228L359,220L349,229L347,243L354,251L356,261L362,260L367,265L365,281L372,283L379,290L389,285L392,278L404,275L405,239L409,228L405,217L394,205L382,206L372,205Z" fill="#000000" fill-opacity="0" stroke="#000000" stroke-width="0" style="fill-opacity: 0;" transform="matrix(1,0,0,1,0,0)"></path><path d="M245,237L248,224L241,224L241,209L231,201L229,192L233,186L231,180L233,167L237,160L236,154L198,154L171,181L171,197L170,202L165,210L158,214L151,215L157,216L161,218L163,226L163,239L168,246L170,252L169,265L166,269L168,270L171,268L177,270L178,274L176,283L165,293L172,294L168,296L173,301L191,299L198,289L205,276L205,279L207,279L211,274L211,237Z" fill="#000000" fill-opacity="0" stroke="#000000" stroke-width="0" style="fill-opacity: 0;" transform="matrix(1,0,0,1,0,0)"></path><path d="M331,454L331,477L335,480L339,487L350,477L350,471L346,466L346,452L337,446L330,445Z" fill="#000000" fill-opacity="0" stroke="#000000" stroke-width="0" style="fill-opacity: 0;" transform="matrix(1,0,0,1,0,0)"></path><path d="M530,509L536,494L545,486L555,484L563,479L584,478L609,493L609,559L528,559L532,535L526,530L525,518Z" fill="#000000" fill-opacity="0" stroke="#000000" stroke-width="0" style="fill-opacity: 0;" transform="matrix(1,0,0,1,0,0)"></path><path d="M128,363L121,382L122,384L112,399L113,407L123,412L134,417L135,414L142,417L149,403L157,397L168,395L163,387L165,383L158,380L156,374L149,372L146,365Z" fill="#000000" fill-opacity="0" stroke="#000000" stroke-width="0" style="fill-opacity: 0;" transform="matrix(1,0,0,1,0,0)"></path><path d="M150,319L144,318L142,312L136,310L136,326L124,323L122,318L102,317L100,322L103,328L109,329L123,344L122,350L123,357L128,363L146,365L146,337L148,329Z" fill="#000000" fill-opacity="0" stroke="#000000" stroke-width="0" style="fill-opacity: 0;" transform="matrix(1,0,0,1,0,0)"></path><path d="M234,366L243,370L246,369L250,371L267,368L271,370L269,362L275,362L281,356L292,357L295,362L294,380L289,385L276,386L268,385L259,388L255,394L250,397L246,392L243,388L245,384L241,378L234,374Z" fill="#000000" fill-opacity="0" stroke="#000000" stroke-width="0" style="fill-opacity: 0;" transform="matrix(1,0,0,1,0,0)"></path><path d="M288,321L297,322L311,334L314,332L321,339L325,340L329,338L333,330L326,327L323,322L320,303L296,300L288,305L284,314Z" fill="#000000" fill-opacity="0" stroke="#000000" stroke-width="0" style="fill-opacity: 0;" transform="matrix(1,0,0,1,0,0)"></path><path d="M435,530L441,526L447,528L453,534L464,531L466,521L475,520L485,528L491,530L505,526L511,514L520,517L527,508L530,509L525,518L526,530L532,535L528,559L400,559L400,554L414,552L416,549Z" fill="#000000" fill-opacity="0" stroke="#000000" stroke-width="0" style="fill-opacity: 0;" transform="matrix(1,0,0,1,0,0)"></path><path d="M128,262L126,256L121,257L132,250L135,250L139,240L136,229L130,227L130,223L138,217L138,214L144,213L145,217L155,228L155,239L151,248L150,264L143,262Z" fill="#000000" fill-opacity="0" stroke="#000000" stroke-width="0" style="fill-opacity: 0;" transform="matrix(1,0,0,1,0,0)"></path><path d="M32,396L30,406L17,427L14,427L10,433L13,440L15,441L12,450L13,454L8,462L19,469L27,468L36,457L34,447L40,441L37,431L42,432L52,412L61,411L62,407L55,400L42,399L43,395Z" fill="#000000" fill-opacity="0" stroke="#000000" stroke-width="0" style="fill-opacity: 0;" transform="matrix(1,0,0,1,0,0)"></path><path d="M440,458L430,455L426,450L422,441L425,427L429,426L430,423L432,409L439,404L438,397L446,378L459,375L461,377L459,379L465,383L476,381L478,383L472,385L468,392L477,396L477,401L486,404L488,397L494,396L497,392L507,389L506,384L494,387L485,378L503,364L526,351L527,354L514,365L517,371L520,371L515,384L511,383L510,386L517,393L528,394L554,406L567,408L573,417L570,427L555,438L551,437L520,441L514,438L511,440L502,433L481,438L470,447L464,457L442,460Z" fill="#000000" fill-opacity="0" stroke="#000000" stroke-width="0" style="fill-opacity: 0;" transform="matrix(1,0,0,1,0,0)"></path><path d="M376,537L371,520L378,521L377,513L386,516L385,509L370,494L371,491L378,494L368,483L371,477L379,484L382,483L381,477L386,478L380,472L392,472L400,468L408,470L410,473L414,475L410,482L409,487L417,486L417,489L420,495L417,498L417,507L423,510L427,524L435,523L435,530L416,549L412,547L387,546L383,544Z" fill="#000000" fill-opacity="0" stroke="#000000" stroke-width="0" style="fill-opacity: 0;" transform="matrix(1,0,0,1,0,0)"></path><path d="M397,48L391,47L395,41L394,38L384,33L382,40L380,33L377,31L374,38L371,33L366,42L366,33L362,33L357,39L343,44L324,54L320,64L310,75L309,84L303,86L292,111L277,132L269,134L264,142L258,141L236,154L237,160L233,167L231,180L233,186L229,192L231,201L241,209L246,210L266,201L270,193L275,203L279,204L287,177L285,170L290,164L292,133L301,132L300,126L309,115L308,104L311,101L324,71L332,74L330,64L341,65L342,61L346,54L355,62L369,61L370,49L379,48L388,54L386,58L388,61Z" fill="#000000" fill-opacity="0" stroke="#000000" stroke-width="0" style="fill-opacity: 0;" transform="matrix(1,0,0,1,0,0)"></path><path d="M192,323L205,331L204,338L211,346L213,352L209,363L208,367L194,382L178,381L178,390L173,396L168,395L163,387L165,383L158,380L156,374L165,365L185,344L188,332Z" fill="#000000" fill-opacity="0" stroke="#000000" stroke-width="0" style="fill-opacity: 0;" transform="matrix(1,0,0,1,0,0)"></path></svg>